<svg xmlns="http://www.w3.org/2000/svg" xmlns:xlink="http://www.w3.org/1999/xlink" width="250" zoomAndPan="magnify" viewBox="0 0 187.5 187.499992" height="250" preserveAspectRatio="xMidYMid meet" version="1.0"><defs><g/><clipPath id="e793fab0e1"><path d="M 75 46.4375 L 84 46.4375 L 84 72 L 75 72 Z M 75 46.4375 " clip-rule="nonzero"/></clipPath><clipPath id="e4820a41be"><path d="M 96 46.4375 L 106 46.4375 L 106 72 L 96 72 Z M 96 46.4375 " clip-rule="nonzero"/></clipPath><clipPath id="adc43f2804"><path d="M 104 108 L 112 108 L 112 133.730469 L 104 133.730469 Z M 104 108 " clip-rule="nonzero"/></clipPath><clipPath id="5ba70dc67b"><path d="M 82 108 L 92 108 L 92 133.730469 L 82 133.730469 Z M 82 108 " clip-rule="nonzero"/></clipPath><clipPath id="bfe6c033a0"><path d="M 111 71 L 137.355469 71 L 137.355469 80 L 111 80 Z M 111 71 " clip-rule="nonzero"/></clipPath><clipPath id="35a6d18cac"><path d="M 111 92 L 137.355469 92 L 137.355469 102 L 111 102 Z M 111 92 " clip-rule="nonzero"/></clipPath><clipPath id="d16c390b25"><path d="M 50.0625 100 L 76 100 L 76 109 L 50.0625 109 Z M 50.0625 100 " clip-rule="nonzero"/></clipPath><clipPath id="393eaa5ac8"><path d="M 50.0625 78 L 76 78 L 76 88 L 50.0625 88 Z M 50.0625 78 " clip-rule="nonzero"/></clipPath></defs><path fill="#3e5abd" d="M 112.476562 109.566406 L 74.910156 109.566406 C 74.53125 109.566406 74.242188 109.273438 74.242188 108.894531 L 74.242188 71.300781 C 74.242188 70.921875 74.53125 70.632812 74.910156 70.632812 L 112.503906 70.632812 C 112.882812 70.632812 113.175781 70.921875 113.175781 71.300781 L 113.175781 108.894531 C 113.175781 109.246094 112.855469 109.566406 112.476562 109.566406 Z M 75.582031 108.195312 L 111.808594 108.195312 L 111.808594 71.972656 L 75.582031 71.972656 Z M 75.582031 108.195312 " fill-opacity="1" fill-rule="nonzero"/><path fill="#3e5abd" d="M 98.480469 95.539062 L 88.90625 95.539062 C 88.527344 95.539062 88.238281 95.25 88.238281 94.871094 L 88.238281 85.296875 C 88.238281 84.917969 88.527344 84.628906 88.90625 84.628906 L 98.480469 84.628906 C 98.859375 84.628906 99.148438 84.917969 99.148438 85.296875 L 99.148438 94.871094 C 99.148438 95.25 98.859375 95.539062 98.480469 95.539062 Z M 89.578125 94.203125 L 97.78125 94.203125 L 97.78125 85.996094 L 89.578125 85.996094 Z M 89.578125 94.203125 " fill-opacity="1" fill-rule="nonzero"/><path fill="#3e5abd" d="M 93.679688 91.292969 C 93.300781 91.292969 93.011719 91 93.011719 90.621094 L 93.011719 89.574219 C 93.011719 89.195312 93.300781 88.90625 93.679688 88.90625 C 94.058594 88.90625 94.347656 89.195312 94.347656 89.574219 L 94.347656 90.621094 C 94.378906 90.972656 94.058594 91.292969 93.679688 91.292969 Z M 93.679688 91.292969 " fill-opacity="1" fill-rule="nonzero"/><path fill="#d97be9" d="M 78.082031 77.296875 C 77.703125 77.296875 77.414062 77.003906 77.414062 76.625 L 77.414062 74.707031 C 77.414062 74.328125 77.703125 74.035156 78.082031 74.035156 C 78.460938 74.035156 78.753906 74.328125 78.753906 74.707031 L 78.753906 76.625 C 78.753906 77.003906 78.433594 77.296875 78.082031 77.296875 Z M 78.082031 77.296875 " fill-opacity="1" fill-rule="nonzero"/><path fill="#d97be9" d="M 81.195312 77.296875 C 80.816406 77.296875 80.527344 77.003906 80.527344 76.625 L 80.527344 74.707031 C 80.527344 74.328125 80.816406 74.035156 81.195312 74.035156 C 81.574219 74.035156 81.867188 74.328125 81.867188 74.707031 L 81.867188 76.625 C 81.867188 77.003906 81.574219 77.296875 81.195312 77.296875 Z M 81.195312 77.296875 " fill-opacity="1" fill-rule="nonzero"/><path fill="#d97be9" d="M 84.308594 77.296875 C 83.929688 77.296875 83.640625 77.003906 83.640625 76.625 L 83.640625 74.707031 C 83.640625 74.328125 83.929688 74.035156 84.308594 74.035156 C 84.6875 74.035156 84.980469 74.328125 84.980469 74.707031 L 84.980469 76.625 C 85.007812 77.003906 84.6875 77.296875 84.308594 77.296875 Z M 84.308594 77.296875 " fill-opacity="1" fill-rule="nonzero"/><path fill="#d97be9" d="M 87.453125 77.296875 C 87.074219 77.296875 86.78125 77.003906 86.78125 76.625 L 86.78125 74.707031 C 86.78125 74.328125 87.074219 74.035156 87.453125 74.035156 C 87.832031 74.035156 88.121094 74.328125 88.121094 74.707031 L 88.121094 76.625 C 88.121094 77.003906 87.832031 77.296875 87.453125 77.296875 Z M 87.453125 77.296875 " fill-opacity="1" fill-rule="nonzero"/><path fill="#d97be9" d="M 90.566406 77.296875 C 90.1875 77.296875 89.898438 77.003906 89.898438 76.625 L 89.898438 74.707031 C 89.898438 74.328125 90.1875 74.035156 90.566406 74.035156 C 90.945312 74.035156 91.234375 74.328125 91.234375 74.707031 L 91.234375 76.625 C 91.234375 77.003906 90.945312 77.296875 90.566406 77.296875 Z M 90.566406 77.296875 " fill-opacity="1" fill-rule="nonzero"/><path fill="#d97be9" d="M 93.679688 77.296875 C 93.300781 77.296875 93.011719 77.003906 93.011719 76.625 L 93.011719 74.707031 C 93.011719 74.328125 93.300781 74.035156 93.679688 74.035156 C 94.058594 74.035156 94.347656 74.328125 94.347656 74.707031 L 94.347656 76.625 C 94.378906 77.003906 94.058594 77.296875 93.679688 77.296875 Z M 93.679688 77.296875 " fill-opacity="1" fill-rule="nonzero"/><path fill="#d97be9" d="M 96.820312 77.296875 C 96.445312 77.296875 96.152344 77.003906 96.152344 76.625 L 96.152344 74.707031 C 96.152344 74.328125 96.445312 74.035156 96.820312 74.035156 C 97.199219 74.035156 97.492188 74.328125 97.492188 74.707031 L 97.492188 76.625 C 97.492188 77.003906 97.199219 77.296875 96.820312 77.296875 Z M 96.820312 77.296875 " fill-opacity="1" fill-rule="nonzero"/><path fill="#d97be9" d="M 99.933594 77.296875 C 99.558594 77.296875 99.265625 77.003906 99.265625 76.625 L 99.265625 74.707031 C 99.265625 74.328125 99.558594 74.035156 99.933594 74.035156 C 100.3125 74.035156 100.605469 74.328125 100.605469 74.707031 L 100.605469 76.625 C 100.632812 77.003906 100.3125 77.296875 99.933594 77.296875 Z M 99.933594 77.296875 " fill-opacity="1" fill-rule="nonzero"/><path fill="#d97be9" d="M 103.078125 77.296875 C 102.699219 77.296875 102.410156 77.003906 102.410156 76.625 L 102.410156 74.707031 C 102.410156 74.328125 102.699219 74.035156 103.078125 74.035156 C 103.457031 74.035156 103.746094 74.328125 103.746094 74.707031 L 103.746094 76.625 C 103.746094 77.003906 103.457031 77.296875 103.078125 77.296875 Z M 103.078125 77.296875 " fill-opacity="1" fill-rule="nonzero"/><path fill="#d97be9" d="M 106.191406 77.296875 C 105.8125 77.296875 105.523438 77.003906 105.523438 76.625 L 105.523438 74.707031 C 105.523438 74.328125 105.8125 74.035156 106.191406 74.035156 C 106.570312 74.035156 106.859375 74.328125 106.859375 74.707031 L 106.859375 76.625 C 106.859375 77.003906 106.570312 77.296875 106.191406 77.296875 Z M 106.191406 77.296875 " fill-opacity="1" fill-rule="nonzero"/><path fill="#d97be9" d="M 109.304688 77.296875 C 108.925781 77.296875 108.636719 77.003906 108.636719 76.625 L 108.636719 74.707031 C 108.636719 74.328125 108.925781 74.035156 109.304688 74.035156 C 109.683594 74.035156 109.972656 74.328125 109.972656 74.707031 L 109.972656 76.625 C 110.003906 77.003906 109.683594 77.296875 109.304688 77.296875 Z M 109.304688 77.296875 " fill-opacity="1" fill-rule="nonzero"/><path fill="#d97be9" d="M 78.082031 83.058594 C 77.703125 83.058594 77.414062 82.765625 77.414062 82.386719 L 77.414062 80.46875 C 77.414062 80.089844 77.703125 79.796875 78.082031 79.796875 C 78.460938 79.796875 78.753906 80.089844 78.753906 80.46875 L 78.753906 82.386719 C 78.753906 82.765625 78.433594 83.058594 78.082031 83.058594 Z M 78.082031 83.058594 " fill-opacity="1" fill-rule="nonzero"/><path fill="#d97be9" d="M 81.195312 83.058594 C 80.816406 83.058594 80.527344 82.765625 80.527344 82.386719 L 80.527344 80.46875 C 80.527344 80.089844 80.816406 79.796875 81.195312 79.796875 C 81.574219 79.796875 81.867188 80.089844 81.867188 80.46875 L 81.867188 82.386719 C 81.867188 82.765625 81.574219 83.058594 81.195312 83.058594 Z M 81.195312 83.058594 " fill-opacity="1" fill-rule="nonzero"/><path fill="#d97be9" d="M 106.191406 83.058594 C 105.8125 83.058594 105.523438 82.765625 105.523438 82.386719 L 105.523438 80.46875 C 105.523438 80.089844 105.8125 79.796875 106.191406 79.796875 C 106.570312 79.796875 106.859375 80.089844 106.859375 80.46875 L 106.859375 82.386719 C 106.859375 82.765625 106.570312 83.058594 106.191406 83.058594 Z M 106.191406 83.058594 " fill-opacity="1" fill-rule="nonzero"/><path fill="#d97be9" d="M 109.304688 83.058594 C 108.925781 83.058594 108.636719 82.765625 108.636719 82.386719 L 108.636719 80.46875 C 108.636719 80.089844 108.925781 79.796875 109.304688 79.796875 C 109.683594 79.796875 109.972656 80.089844 109.972656 80.46875 L 109.972656 82.386719 C 110.003906 82.765625 109.683594 83.058594 109.304688 83.058594 Z M 109.304688 83.058594 " fill-opacity="1" fill-rule="nonzero"/><path fill="#d97be9" d="M 78.082031 88.847656 C 77.703125 88.847656 77.414062 88.554688 77.414062 88.179688 L 77.414062 86.257812 C 77.414062 85.878906 77.703125 85.589844 78.082031 85.589844 C 78.460938 85.589844 78.753906 85.878906 78.753906 86.257812 L 78.753906 88.179688 C 78.753906 88.527344 78.433594 88.847656 78.082031 88.847656 Z M 78.082031 88.847656 " fill-opacity="1" fill-rule="nonzero"/><path fill="#d97be9" d="M 81.195312 88.847656 C 80.816406 88.847656 80.527344 88.554688 80.527344 88.179688 L 80.527344 86.257812 C 80.527344 85.878906 80.816406 85.589844 81.195312 85.589844 C 81.574219 85.589844 81.867188 85.878906 81.867188 86.257812 L 81.867188 88.179688 C 81.867188 88.527344 81.574219 88.847656 81.195312 88.847656 Z M 81.195312 88.847656 " fill-opacity="1" fill-rule="nonzero"/><path fill="#d97be9" d="M 106.191406 88.847656 C 105.8125 88.847656 105.523438 88.554688 105.523438 88.179688 L 105.523438 86.257812 C 105.523438 85.878906 105.8125 85.589844 106.191406 85.589844 C 106.570312 85.589844 106.859375 85.878906 106.859375 86.257812 L 106.859375 88.179688 C 106.859375 88.527344 106.570312 88.847656 106.191406 88.847656 Z M 106.191406 88.847656 " fill-opacity="1" fill-rule="nonzero"/><path fill="#d97be9" d="M 109.304688 88.847656 C 108.925781 88.847656 108.636719 88.554688 108.636719 88.179688 L 108.636719 86.257812 C 108.636719 85.878906 108.925781 85.589844 109.304688 85.589844 C 109.683594 85.589844 109.972656 85.878906 109.972656 86.257812 L 109.972656 88.179688 C 110.003906 88.527344 109.683594 88.847656 109.304688 88.847656 Z M 109.304688 88.847656 " fill-opacity="1" fill-rule="nonzero"/><path fill="#d97be9" d="M 78.082031 94.609375 C 77.703125 94.609375 77.414062 94.316406 77.414062 93.9375 L 77.414062 92.019531 C 77.414062 91.640625 77.703125 91.351562 78.082031 91.351562 C 78.460938 91.351562 78.753906 91.640625 78.753906 92.019531 L 78.753906 93.9375 C 78.753906 94.289062 78.433594 94.609375 78.082031 94.609375 Z M 78.082031 94.609375 " fill-opacity="1" fill-rule="nonzero"/><path fill="#d97be9" d="M 81.195312 94.609375 C 80.816406 94.609375 80.527344 94.316406 80.527344 93.9375 L 80.527344 92.019531 C 80.527344 91.640625 80.816406 91.351562 81.195312 91.351562 C 81.574219 91.351562 81.867188 91.640625 81.867188 92.019531 L 81.867188 93.9375 C 81.867188 94.289062 81.574219 94.609375 81.195312 94.609375 Z M 81.195312 94.609375 " fill-opacity="1" fill-rule="nonzero"/><path fill="#d97be9" d="M 106.191406 94.609375 C 105.8125 94.609375 105.523438 94.316406 105.523438 93.9375 L 105.523438 92.019531 C 105.523438 91.640625 105.8125 91.351562 106.191406 91.351562 C 106.570312 91.351562 106.859375 91.640625 106.859375 92.019531 L 106.859375 93.9375 C 106.859375 94.289062 106.570312 94.609375 106.191406 94.609375 Z M 106.191406 94.609375 " fill-opacity="1" fill-rule="nonzero"/><path fill="#d97be9" d="M 109.304688 94.609375 C 108.925781 94.609375 108.636719 94.316406 108.636719 93.9375 L 108.636719 92.019531 C 108.636719 91.640625 108.925781 91.351562 109.304688 91.351562 C 109.683594 91.351562 109.972656 91.640625 109.972656 92.019531 L 109.972656 93.9375 C 110.003906 94.289062 109.683594 94.609375 109.304688 94.609375 Z M 109.304688 94.609375 " fill-opacity="1" fill-rule="nonzero"/><path fill="#d97be9" d="M 78.082031 100.371094 C 77.703125 100.371094 77.414062 100.078125 77.414062 99.699219 L 77.414062 97.78125 C 77.414062 97.402344 77.703125 97.109375 78.082031 97.109375 C 78.460938 97.109375 78.753906 97.402344 78.753906 97.78125 L 78.753906 99.699219 C 78.753906 100.078125 78.433594 100.371094 78.082031 100.371094 Z M 78.082031 100.371094 " fill-opacity="1" fill-rule="nonzero"/><path fill="#d97be9" d="M 81.195312 100.371094 C 80.816406 100.371094 80.527344 100.078125 80.527344 99.699219 L 80.527344 97.78125 C 80.527344 97.402344 80.816406 97.109375 81.195312 97.109375 C 81.574219 97.109375 81.867188 97.402344 81.867188 97.78125 L 81.867188 99.699219 C 81.867188 100.078125 81.574219 100.371094 81.195312 100.371094 Z M 81.195312 100.371094 " fill-opacity="1" fill-rule="nonzero"/><path fill="#d97be9" d="M 106.191406 100.371094 C 105.8125 100.371094 105.523438 100.078125 105.523438 99.699219 L 105.523438 97.78125 C 105.523438 97.402344 105.8125 97.109375 106.191406 97.109375 C 106.570312 97.109375 106.859375 97.402344 106.859375 97.78125 L 106.859375 99.699219 C 106.859375 100.078125 106.570312 100.371094 106.191406 100.371094 Z M 106.191406 100.371094 " fill-opacity="1" fill-rule="nonzero"/><path fill="#d97be9" d="M 109.304688 100.371094 C 108.925781 100.371094 108.636719 100.078125 108.636719 99.699219 L 108.636719 97.78125 C 108.636719 97.402344 108.925781 97.109375 109.304688 97.109375 C 109.683594 97.109375 109.972656 97.402344 109.972656 97.78125 L 109.972656 99.699219 C 110.003906 100.078125 109.683594 100.371094 109.304688 100.371094 Z M 109.304688 100.371094 " fill-opacity="1" fill-rule="nonzero"/><path fill="#d97be9" d="M 78.082031 106.132812 C 77.703125 106.132812 77.414062 105.839844 77.414062 105.460938 L 77.414062 103.542969 C 77.414062 103.164062 77.703125 102.871094 78.082031 102.871094 C 78.460938 102.871094 78.753906 103.164062 78.753906 103.542969 L 78.753906 105.460938 C 78.753906 105.839844 78.433594 106.132812 78.082031 106.132812 Z M 78.082031 106.132812 " fill-opacity="1" fill-rule="nonzero"/><path fill="#d97be9" d="M 81.195312 106.132812 C 80.816406 106.132812 80.527344 105.839844 80.527344 105.460938 L 80.527344 103.542969 C 80.527344 103.164062 80.816406 102.871094 81.195312 102.871094 C 81.574219 102.871094 81.867188 103.164062 81.867188 103.542969 L 81.867188 105.460938 C 81.867188 105.839844 81.574219 106.132812 81.195312 106.132812 Z M 81.195312 106.132812 " fill-opacity="1" fill-rule="nonzero"/><path fill="#d97be9" d="M 84.308594 106.132812 C 83.929688 106.132812 83.640625 105.839844 83.640625 105.460938 L 83.640625 103.542969 C 83.640625 103.164062 83.929688 102.871094 84.308594 102.871094 C 84.6875 102.871094 84.980469 103.164062 84.980469 103.542969 L 84.980469 105.460938 C 85.007812 105.839844 84.6875 106.132812 84.308594 106.132812 Z M 84.308594 106.132812 " fill-opacity="1" fill-rule="nonzero"/><path fill="#d97be9" d="M 87.453125 106.132812 C 87.074219 106.132812 86.78125 105.839844 86.78125 105.460938 L 86.78125 103.542969 C 86.78125 103.164062 87.074219 102.871094 87.453125 102.871094 C 87.832031 102.871094 88.121094 103.164062 88.121094 103.542969 L 88.121094 105.460938 C 88.121094 105.839844 87.832031 106.132812 87.453125 106.132812 Z M 87.453125 106.132812 " fill-opacity="1" fill-rule="nonzero"/><path fill="#d97be9" d="M 90.566406 106.132812 C 90.1875 106.132812 89.898438 105.839844 89.898438 105.460938 L 89.898438 103.542969 C 89.898438 103.164062 90.1875 102.871094 90.566406 102.871094 C 90.945312 102.871094 91.234375 103.164062 91.234375 103.542969 L 91.234375 105.460938 C 91.234375 105.839844 90.945312 106.132812 90.566406 106.132812 Z M 90.566406 106.132812 " fill-opacity="1" fill-rule="nonzero"/><path fill="#d97be9" d="M 93.679688 106.132812 C 93.300781 106.132812 93.011719 105.839844 93.011719 105.460938 L 93.011719 103.542969 C 93.011719 103.164062 93.300781 102.871094 93.679688 102.871094 C 94.058594 102.871094 94.347656 103.164062 94.347656 103.542969 L 94.347656 105.460938 C 94.378906 105.839844 94.058594 106.132812 93.679688 106.132812 Z M 93.679688 106.132812 " fill-opacity="1" fill-rule="nonzero"/><path fill="#d97be9" d="M 96.820312 106.132812 C 96.445312 106.132812 96.152344 105.839844 96.152344 105.460938 L 96.152344 103.542969 C 96.152344 103.164062 96.445312 102.871094 96.820312 102.871094 C 97.199219 102.871094 97.492188 103.164062 97.492188 103.542969 L 97.492188 105.460938 C 97.492188 105.839844 97.199219 106.132812 96.820312 106.132812 Z M 96.820312 106.132812 " fill-opacity="1" fill-rule="nonzero"/><path fill="#d97be9" d="M 99.933594 106.132812 C 99.558594 106.132812 99.265625 105.839844 99.265625 105.460938 L 99.265625 103.542969 C 99.265625 103.164062 99.558594 102.871094 99.933594 102.871094 C 100.3125 102.871094 100.605469 103.164062 100.605469 103.542969 L 100.605469 105.460938 C 100.632812 105.839844 100.3125 106.132812 99.933594 106.132812 Z M 99.933594 106.132812 " fill-opacity="1" fill-rule="nonzero"/><path fill="#d97be9" d="M 103.078125 106.132812 C 102.699219 106.132812 102.410156 105.839844 102.410156 105.460938 L 102.410156 103.542969 C 102.410156 103.164062 102.699219 102.871094 103.078125 102.871094 C 103.457031 102.871094 103.746094 103.164062 103.746094 103.542969 L 103.746094 105.460938 C 103.746094 105.839844 103.457031 106.132812 103.078125 106.132812 Z M 103.078125 106.132812 " fill-opacity="1" fill-rule="nonzero"/><path fill="#d97be9" d="M 106.191406 106.132812 C 105.8125 106.132812 105.523438 105.839844 105.523438 105.460938 L 105.523438 103.542969 C 105.523438 103.164062 105.8125 102.871094 106.191406 102.871094 C 106.570312 102.871094 106.859375 103.164062 106.859375 103.542969 L 106.859375 105.460938 C 106.859375 105.839844 106.570312 106.132812 106.191406 106.132812 Z M 106.191406 106.132812 " fill-opacity="1" fill-rule="nonzero"/><path fill="#d97be9" d="M 109.304688 106.132812 C 108.925781 106.132812 108.636719 105.839844 108.636719 105.460938 L 108.636719 103.542969 C 108.636719 103.164062 108.925781 102.871094 109.304688 102.871094 C 109.683594 102.871094 109.972656 103.164062 109.972656 103.542969 L 109.972656 105.460938 C 110.003906 105.839844 109.683594 106.132812 109.304688 106.132812 Z M 109.304688 106.132812 " fill-opacity="1" fill-rule="nonzero"/><g clip-path="url(#e793fab0e1)"><path fill="#3e5abd" d="M 82.417969 71.972656 C 82.039062 71.972656 81.75 71.679688 81.75 71.300781 L 81.75 61.582031 L 75.609375 55.445312 C 75.492188 55.328125 75.40625 55.152344 75.40625 54.949219 L 75.40625 47.121094 C 75.40625 46.742188 75.695312 46.453125 76.074219 46.453125 C 76.453125 46.453125 76.746094 46.742188 76.746094 47.121094 L 76.746094 54.6875 L 82.882812 60.828125 C 83 60.941406 83.085938 61.117188 83.085938 61.320312 L 83.085938 71.300781 C 83.117188 71.679688 82.796875 71.972656 82.417969 71.972656 Z M 82.417969 71.972656 " fill-opacity="1" fill-rule="nonzero"/></g><path fill="#3e5abd" d="M 88.238281 71.972656 C 87.859375 71.972656 87.570312 71.679688 87.570312 71.300781 L 87.570312 63.738281 C 87.570312 63.5625 87.625 63.386719 87.773438 63.242188 L 92.019531 58.992188 L 92.019531 52.417969 C 92.019531 52.039062 92.3125 51.75 92.691406 51.75 C 93.066406 51.75 93.359375 52.039062 93.359375 52.417969 L 93.359375 59.285156 C 93.359375 59.460938 93.300781 59.632812 93.15625 59.777344 L 88.90625 64.027344 L 88.90625 71.332031 C 88.9375 71.679688 88.617188 71.972656 88.238281 71.972656 Z M 88.238281 71.972656 " fill-opacity="1" fill-rule="nonzero"/><g clip-path="url(#e4820a41be)"><path fill="#3e5abd" d="M 102.03125 71.972656 C 101.855469 71.972656 101.679688 71.914062 101.535156 71.765625 L 96.53125 66.761719 C 96.414062 66.644531 96.328125 66.472656 96.328125 66.269531 L 96.328125 61.292969 C 96.328125 61.117188 96.386719 60.941406 96.53125 60.796875 L 103.835938 53.492188 L 103.835938 47.121094 C 103.835938 46.742188 104.125 46.453125 104.503906 46.453125 C 104.882812 46.453125 105.171875 46.742188 105.171875 47.121094 L 105.171875 53.785156 C 105.171875 53.960938 105.113281 54.132812 104.96875 54.28125 L 97.722656 61.582031 L 97.722656 66.007812 L 102.523438 70.808594 C 102.785156 71.070312 102.785156 71.503906 102.523438 71.765625 C 102.378906 71.914062 102.203125 71.972656 102.03125 71.972656 Z M 102.03125 71.972656 " fill-opacity="1" fill-rule="nonzero"/></g><path fill="#3e5abd" d="M 107.003906 71.972656 C 106.628906 71.972656 106.335938 71.679688 106.335938 71.300781 L 106.335938 65.074219 C 106.335938 64.898438 106.394531 64.726562 106.539062 64.582031 L 110.644531 60.476562 L 110.644531 56.082031 C 110.644531 55.707031 110.933594 55.414062 111.3125 55.414062 C 111.691406 55.414062 111.980469 55.707031 111.980469 56.082031 L 111.980469 60.796875 C 111.980469 60.972656 111.921875 61.148438 111.777344 61.292969 L 107.675781 65.367188 L 107.675781 71.300781 C 107.675781 71.679688 107.382812 71.972656 107.003906 71.972656 Z M 107.003906 71.972656 " fill-opacity="1" fill-rule="nonzero"/><g clip-path="url(#adc43f2804)"><path fill="#3e5abd" d="M 111.28125 133.714844 C 110.90625 133.714844 110.613281 133.425781 110.613281 133.046875 L 110.613281 125.480469 L 104.472656 119.339844 C 104.359375 119.226562 104.269531 119.050781 104.269531 118.847656 L 104.269531 108.867188 C 104.269531 108.488281 104.5625 108.195312 104.941406 108.195312 C 105.316406 108.195312 105.609375 108.488281 105.609375 108.867188 L 105.609375 118.585938 L 111.75 124.722656 C 111.863281 124.839844 111.953125 125.015625 111.953125 125.21875 L 111.953125 133.046875 C 111.980469 133.394531 111.660156 133.714844 111.28125 133.714844 Z M 111.28125 133.714844 " fill-opacity="1" fill-rule="nonzero"/></g><path fill="#3e5abd" d="M 94.699219 128.449219 C 94.320312 128.449219 94.027344 128.15625 94.027344 127.78125 L 94.027344 120.914062 C 94.027344 120.738281 94.085938 120.5625 94.230469 120.417969 L 98.480469 116.167969 L 98.480469 108.867188 C 98.480469 108.488281 98.769531 108.195312 99.148438 108.195312 C 99.527344 108.195312 99.820312 108.488281 99.820312 108.867188 L 99.820312 116.429688 C 99.820312 116.605469 99.761719 116.78125 99.613281 116.925781 L 95.367188 121.175781 L 95.367188 127.75 C 95.394531 128.128906 95.074219 128.449219 94.699219 128.449219 Z M 94.699219 128.449219 " fill-opacity="1" fill-rule="nonzero"/><g clip-path="url(#5ba70dc67b)"><path fill="#3e5abd" d="M 82.855469 133.714844 C 82.476562 133.714844 82.1875 133.425781 82.1875 133.046875 L 82.1875 126.382812 C 82.1875 126.207031 82.242188 126.035156 82.390625 125.886719 L 89.691406 118.585938 L 89.691406 114.160156 L 84.890625 109.359375 C 84.628906 109.097656 84.628906 108.664062 84.890625 108.402344 C 85.152344 108.140625 85.589844 108.140625 85.851562 108.402344 L 90.855469 113.40625 C 90.972656 113.523438 91.058594 113.695312 91.058594 113.898438 L 91.058594 118.90625 C 91.058594 119.078125 91.003906 119.253906 90.855469 119.398438 L 83.523438 126.644531 L 83.523438 133.015625 C 83.523438 133.394531 83.234375 133.714844 82.855469 133.714844 Z M 82.855469 133.714844 " fill-opacity="1" fill-rule="nonzero"/></g><path fill="#3e5abd" d="M 76.105469 124.78125 C 75.726562 124.78125 75.433594 124.492188 75.433594 124.113281 L 75.433594 119.398438 C 75.433594 119.226562 75.492188 119.050781 75.640625 118.90625 L 79.742188 114.800781 L 79.742188 108.867188 C 79.742188 108.488281 80.03125 108.195312 80.410156 108.195312 C 80.789062 108.195312 81.078125 108.488281 81.078125 108.867188 L 81.078125 115.09375 C 81.078125 115.269531 81.023438 115.441406 80.875 115.585938 L 76.773438 119.691406 L 76.773438 124.113281 C 76.773438 124.460938 76.484375 124.78125 76.105469 124.78125 Z M 76.105469 124.78125 " fill-opacity="1" fill-rule="nonzero"/><g clip-path="url(#bfe6c033a0)"><path fill="#3e5abd" d="M 122.484375 79.507812 L 112.503906 79.507812 C 112.125 79.507812 111.835938 79.214844 111.835938 78.835938 C 111.835938 78.460938 112.125 78.167969 112.503906 78.167969 L 122.222656 78.167969 L 128.335938 72 C 128.449219 71.882812 128.625 71.796875 128.828125 71.796875 L 136.65625 71.796875 C 137.035156 71.796875 137.324219 72.085938 137.324219 72.464844 C 137.324219 72.84375 137.035156 73.136719 136.65625 73.136719 L 129.089844 73.136719 L 122.949219 79.273438 C 122.835938 79.417969 122.660156 79.507812 122.484375 79.507812 Z M 122.484375 79.507812 " fill-opacity="1" fill-rule="nonzero"/></g><path fill="#3e5abd" d="M 131.359375 89.75 L 124.492188 89.75 C 124.320312 89.75 124.144531 89.691406 124 89.546875 L 119.75 85.296875 L 112.445312 85.296875 C 112.070312 85.296875 111.777344 85.007812 111.777344 84.628906 C 111.777344 84.25 112.070312 83.960938 112.445312 83.960938 L 120.011719 83.960938 C 120.1875 83.960938 120.363281 84.015625 120.507812 84.164062 L 124.753906 88.410156 L 131.332031 88.410156 C 131.710938 88.410156 132 88.703125 132 89.082031 C 132.058594 89.457031 131.738281 89.75 131.359375 89.75 Z M 131.359375 89.75 " fill-opacity="1" fill-rule="nonzero"/><g clip-path="url(#35a6d18cac)"><path fill="#3e5abd" d="M 136.65625 101.621094 L 129.992188 101.621094 C 129.816406 101.621094 129.644531 101.5625 129.496094 101.417969 L 122.195312 94.113281 L 117.773438 94.113281 L 112.96875 98.914062 C 112.707031 99.175781 112.273438 99.175781 112.011719 98.914062 C 111.75 98.652344 111.75 98.214844 112.011719 97.953125 L 117.015625 92.949219 C 117.132812 92.832031 117.304688 92.746094 117.511719 92.746094 L 122.515625 92.746094 C 122.6875 92.746094 122.863281 92.804688 123.007812 92.949219 L 130.3125 100.253906 L 136.683594 100.253906 C 137.0625 100.253906 137.355469 100.542969 137.355469 100.921875 C 137.324219 101.300781 137.003906 101.621094 136.65625 101.621094 Z M 136.65625 101.621094 " fill-opacity="1" fill-rule="nonzero"/></g><path fill="#3e5abd" d="M 127.695312 108.371094 L 122.980469 108.371094 C 122.804688 108.371094 122.632812 108.3125 122.484375 108.167969 L 118.410156 104.066406 L 112.476562 104.066406 C 112.097656 104.066406 111.808594 103.773438 111.808594 103.394531 C 111.808594 103.019531 112.097656 102.726562 112.476562 102.726562 L 118.703125 102.726562 C 118.878906 102.726562 119.050781 102.785156 119.199219 102.929688 L 123.300781 107.03125 L 127.722656 107.03125 C 128.101562 107.03125 128.390625 107.324219 128.390625 107.703125 C 128.390625 108.050781 128.070312 108.371094 127.695312 108.371094 Z M 127.695312 108.371094 " fill-opacity="1" fill-rule="nonzero"/><g clip-path="url(#d16c390b25)"><path fill="#3e5abd" d="M 58.585938 108.371094 L 50.730469 108.371094 C 50.351562 108.371094 50.0625 108.082031 50.0625 107.703125 C 50.0625 107.324219 50.351562 107.03125 50.730469 107.03125 L 58.296875 107.03125 L 64.4375 100.863281 C 64.550781 100.75 64.726562 100.660156 64.929688 100.660156 L 74.910156 100.660156 C 75.289062 100.660156 75.582031 100.953125 75.582031 101.332031 C 75.582031 101.707031 75.289062 102 74.910156 102 L 65.191406 102 L 59.054688 108.140625 C 58.9375 108.285156 58.761719 108.371094 58.585938 108.371094 Z M 58.585938 108.371094 " fill-opacity="1" fill-rule="nonzero"/></g><path fill="#3e5abd" d="M 74.910156 96.210938 L 67.347656 96.210938 C 67.171875 96.210938 66.996094 96.152344 66.851562 96.003906 L 62.601562 91.757812 L 56.027344 91.757812 C 55.648438 91.757812 55.359375 91.464844 55.359375 91.085938 C 55.359375 90.710938 55.648438 90.417969 56.027344 90.417969 L 62.894531 90.417969 C 63.070312 90.417969 63.242188 90.476562 63.390625 90.621094 L 67.636719 94.871094 L 74.941406 94.871094 C 75.320312 94.871094 75.609375 95.160156 75.609375 95.539062 C 75.609375 95.917969 75.289062 96.210938 74.910156 96.210938 Z M 74.910156 96.210938 " fill-opacity="1" fill-rule="nonzero"/><g clip-path="url(#393eaa5ac8)"><path fill="#3e5abd" d="M 69.90625 87.421875 L 64.902344 87.421875 C 64.726562 87.421875 64.550781 87.363281 64.40625 87.21875 L 57.132812 79.914062 L 50.730469 79.914062 C 50.351562 79.914062 50.0625 79.625 50.0625 79.246094 C 50.0625 78.867188 50.351562 78.574219 50.730469 78.574219 L 57.394531 78.574219 C 57.570312 78.574219 57.742188 78.632812 57.890625 78.78125 L 65.191406 86.054688 L 69.617188 86.054688 L 74.417969 81.253906 C 74.679688 80.992188 75.113281 80.992188 75.375 81.253906 C 75.640625 81.515625 75.640625 81.953125 75.375 82.214844 L 70.371094 87.21875 C 70.253906 87.335938 70.082031 87.421875 69.90625 87.421875 Z M 69.90625 87.421875 " fill-opacity="1" fill-rule="nonzero"/></g><path fill="#3e5abd" d="M 74.910156 77.46875 L 68.683594 77.46875 C 68.511719 77.46875 68.335938 77.414062 68.191406 77.265625 L 64.117188 73.164062 L 59.695312 73.164062 C 59.316406 73.164062 59.023438 72.871094 59.023438 72.496094 C 59.023438 72.117188 59.316406 71.824219 59.695312 71.824219 L 64.40625 71.824219 C 64.582031 71.824219 64.757812 71.882812 64.902344 72.027344 L 68.976562 76.101562 L 74.910156 76.101562 C 75.289062 76.101562 75.582031 76.394531 75.582031 76.773438 C 75.582031 77.148438 75.289062 77.46875 74.910156 77.46875 Z M 74.910156 77.46875 " fill-opacity="1" fill-rule="nonzero"/><g fill="#ffffff" fill-opacity="1"><g transform="translate(36.545309, 41.717317)"><g><path d="M 18.140625 -17.3125 C 18.140625 -17.726562 18.035156 -17.933594 17.570312 -17.984375 L 11.929688 -18.34375 L 10.5625 -18.34375 C 4.304688 -18.34375 0.902344 -15.304688 0.902344 -9.042969 C 0.902344 -2.78125 4.304688 0.257812 10.5625 0.257812 L 13.269531 0.257812 L 17.519531 0.0507812 C 17.957031 0.0273438 18.085938 -0.101562 18.113281 -0.542969 L 18.113281 -8.449219 C 18.140625 -8.863281 17.984375 -9.042969 17.519531 -9.042969 L 14.042969 -9.042969 C 13.605469 -9.042969 13.476562 -8.890625 13.449219 -8.449219 L 13.113281 -0.101562 L 10.925781 -0.101562 C 8.089844 -0.101562 5.796875 -5.023438 5.796875 -9.042969 C 5.796875 -13.0625 8.089844 -17.984375 10.925781 -17.984375 L 16.617188 -13.113281 C 16.800781 -12.933594 16.980469 -12.855469 17.183594 -12.855469 C 17.289062 -12.855469 17.367188 -12.882812 17.46875 -12.910156 L 17.777344 -13.039062 C 18.035156 -13.140625 18.140625 -13.292969 18.140625 -13.65625 Z M 18.140625 -17.3125 "/></g></g></g><g fill="#ffffff" fill-opacity="1"><g transform="translate(56.870606, 41.717317)"><g><path d="M 9.199219 -13.550781 C 9.042969 -13.914062 8.707031 -14.222656 8.269531 -14.222656 L 6.957031 -14.222656 C 6.597656 -14.222656 6.234375 -13.914062 6.082031 -13.550781 L 0.308594 -0.667969 C 0.179688 -0.335938 0.308594 0 0.722656 0 L 4.429688 0 C 4.972656 0 5.179688 -0.285156 5 -0.667969 L 3.09375 -4.921875 L 8.21875 -4.921875 L 10.125 -0.667969 C 10.304688 -0.285156 10.589844 0 11.054688 0 L 14.558594 0 C 14.96875 0 15.097656 -0.335938 14.96875 -0.667969 Z M 8.066406 -5.28125 L 2.808594 -5.28125 L 5.410156 -11.234375 Z M 8.066406 -5.28125 "/></g></g></g><g fill="#ffffff" fill-opacity="1"><g transform="translate(72.146774, 41.717317)"><g><path d="M 13.757812 -9.609375 L 13.835938 -9.714844 C 13.9375 -13.0625 12.210938 -14.222656 6.519531 -14.222656 L 2.628906 -14.222656 C 2.214844 -14.222656 2.0625 -13.964844 2.0625 -13.550781 L 2.0625 -0.667969 C 2.0625 -0.257812 2.214844 0 2.628906 0 L 7.1875 0 C 13.0625 0 14.789062 -0.902344 14.789062 -4.148438 C 14.789062 -6.90625 12.394531 -7.574219 8.785156 -7.574219 Z M 6.363281 -7.238281 C 9.148438 -7.238281 10.460938 -6.363281 10.460938 -3.789062 C 10.460938 -1.753906 9.148438 -0.359375 6.671875 -0.359375 L 6.210938 -0.359375 L 6.210938 -7.238281 Z M 6.519531 -13.863281 C 8.863281 -13.863281 10.253906 -13.191406 10.253906 -10.617188 C 10.253906 -9.40625 9.148438 -7.601562 6.363281 -7.601562 L 6.210938 -7.601562 L 6.210938 -13.863281 Z M 6.519531 -13.863281 "/></g></g></g><g fill="#ffffff" fill-opacity="1"><g transform="translate(88.092724, 41.717317)"><g><path d="M 15.664062 0 C 16.101562 0 16.230469 -0.359375 16 -0.667969 L 13.039062 -4.558594 C 12.855469 -4.792969 12.546875 -4.792969 12.265625 -4.792969 C 9.738281 -4.792969 8.65625 -5.589844 7.988281 -6.390625 L 8.605469 -6.390625 C 12.625 -6.390625 14.710938 -7.1875 14.710938 -10.433594 C 14.710938 -13.421875 12.625 -14.222656 8.605469 -14.222656 L 2.628906 -14.222656 C 2.214844 -14.222656 2.0625 -13.964844 2.0625 -13.550781 L 2.0625 -0.667969 C 2.0625 -0.257812 2.214844 0 2.628906 0 L 5.898438 0 C 6.3125 0 6.46875 -0.257812 6.46875 -0.667969 L 6.46875 -6.390625 L 7.496094 -6.390625 L 11.441406 -0.667969 C 11.75 -0.257812 12.160156 0 12.574219 0 Z M 7.753906 -13.863281 C 9.300781 -13.863281 10.28125 -13.65625 10.28125 -10.433594 C 10.28125 -7.214844 9.300781 -6.75 7.753906 -6.75 L 6.46875 -6.75 L 6.46875 -13.863281 Z M 7.753906 -13.863281 "/></g></g></g><g fill="#ffffff" fill-opacity="1"><g transform="translate(104.605413, 41.717317)"><g><path d="M 2.808594 -14.222656 C 2.394531 -14.222656 2.242188 -13.964844 2.242188 -13.550781 L 2.242188 -0.667969 C 2.242188 -0.257812 2.394531 0 2.808594 0 L 6.082031 0 C 6.492188 0 6.648438 -0.257812 6.648438 -0.667969 L 6.648438 -13.550781 C 6.648438 -13.964844 6.492188 -14.222656 6.082031 -14.222656 Z M 2.0625 -17.984375 C 2.0625 -16.671875 3.117188 -15.613281 4.429688 -15.613281 C 5.746094 -15.613281 6.800781 -16.671875 6.800781 -17.984375 C 6.800781 -19.296875 5.746094 -20.355469 4.429688 -20.355469 C 3.117188 -20.355469 2.0625 -19.296875 2.0625 -17.984375 Z M 2.0625 -17.984375 "/></g></g></g><g fill="#ffffff" fill-opacity="1"><g transform="translate(113.467142, 41.717317)"><g><path d="M 2.628906 -14.222656 C 2.214844 -14.222656 2.0625 -13.964844 2.0625 -13.550781 L 2.0625 -0.667969 C 2.0625 -0.257812 2.214844 0 2.628906 0 L 12.804688 0 C 13.167969 0 13.371094 -0.257812 13.527344 -0.667969 L 15.125 -4.664062 C 15.175781 -4.792969 15.226562 -4.921875 15.097656 -5.023438 L 14.789062 -5.257812 C 14.738281 -5.308594 14.6875 -5.308594 14.632812 -5.308594 C 14.558594 -5.308594 14.480469 -5.257812 14.378906 -5.203125 L 7.472656 -0.359375 L 6.46875 -0.359375 L 6.46875 -7.085938 L 11.980469 -6.957031 L 11.980469 -7.574219 L 6.46875 -7.445312 L 6.46875 -13.863281 L 7.472656 -13.863281 L 11.902344 -10.125 C 12.265625 -9.84375 12.703125 -9.507812 13.0625 -9.507812 L 13.21875 -9.507812 C 13.628906 -9.507812 13.785156 -9.765625 13.785156 -10.175781 L 13.785156 -13.550781 C 13.785156 -13.964844 13.628906 -14.222656 13.21875 -14.222656 Z M 2.628906 -14.222656 "/></g></g></g><g fill="#ffffff" fill-opacity="1"><g transform="translate(129.052443, 41.717317)"><g><path d="M 13.785156 -4.046875 C 13.785156 -4.457031 13.628906 -4.714844 13.21875 -4.714844 L 13.0625 -4.714844 C 12.703125 -4.714844 12.265625 -4.378906 11.902344 -4.097656 L 7.472656 -0.359375 L 6.46875 -0.359375 L 6.46875 -13.550781 C 6.46875 -13.964844 6.3125 -14.222656 5.898438 -14.222656 L 2.628906 -14.222656 C 2.214844 -14.222656 2.0625 -13.964844 2.0625 -13.550781 L 2.0625 -0.667969 C 2.0625 -0.257812 2.214844 0 2.628906 0 L 13.21875 0 C 13.628906 0 13.785156 -0.257812 13.785156 -0.667969 Z M 13.785156 -4.046875 "/></g></g></g><g fill="#ffffff" fill-opacity="1"><g transform="translate(143.218445, 41.717317)"><g/></g></g><g fill="#ffffff" fill-opacity="1"><g transform="translate(41.514976, 152.35444)"><g><path d="M 15.957031 -12.140625 L 16.035156 -12.246094 C 16.136719 -15.597656 13.765625 -18.046875 6.984375 -18.046875 L 2.628906 -18.046875 C 2.21875 -18.046875 2.0625 -17.789062 2.0625 -17.375 L 2.0625 -0.671875 C 2.0625 -0.257812 2.21875 0 2.628906 0 L 8.300781 0 C 14.667969 0 16.988281 -1.574219 16.988281 -4.820312 C 16.988281 -7.578125 13.816406 -8.972656 10.207031 -8.972656 Z M 6.984375 -17.683594 C 10.722656 -17.683594 11.9375 -16.164062 11.9375 -13.585938 C 11.9375 -12.375 11.164062 -8.996094 7.785156 -8.996094 L 6.726562 -8.996094 L 6.726562 -17.683594 Z M 7.785156 -8.636719 C 10.648438 -8.636719 12.140625 -7.039062 12.140625 -4.460938 C 12.140625 -2.421875 10.648438 -0.359375 7.785156 -0.359375 L 6.726562 -0.359375 L 6.726562 -8.636719 Z M 7.785156 -8.636719 "/></g></g></g><g fill="#ffffff" fill-opacity="1"><g transform="translate(59.403161, 152.35444)"><g><path d="M 9.382812 -14.488281 C 4.589844 -14.488281 1.03125 -13.429688 1.03125 -7.167969 C 1.03125 -0.902344 4.589844 0.15625 9.382812 0.15625 C 13.457031 0.15625 17.734375 -0.902344 17.734375 -7.167969 C 17.734375 -13.429688 13.457031 -14.488281 9.382812 -14.488281 Z M 9.382812 -14.179688 C 11.34375 -14.179688 12.839844 -11.1875 12.839844 -7.167969 C 12.839844 -3.144531 11.34375 -0.15625 9.382812 -0.15625 C 7.425781 -0.15625 5.929688 -3.144531 5.929688 -7.167969 C 5.929688 -11.1875 7.425781 -14.179688 9.382812 -14.179688 Z M 9.382812 -14.179688 "/></g></g></g><g fill="#ffffff" fill-opacity="1"><g transform="translate(78.167718, 152.35444)"><g><path d="M 18.328125 0 C 18.742188 0 18.894531 -0.257812 18.894531 -0.671875 L 18.894531 -13.558594 C 18.894531 -13.972656 18.742188 -14.230469 18.328125 -14.230469 L 16.242188 -14.230469 C 15.777344 -14.230469 15.570312 -14.152344 15.390625 -13.816406 L 11.085938 -6.933594 L 6.855469 -13.6875 C 6.625 -14.074219 6.289062 -14.230469 5.902344 -14.230469 L 1.519531 -14.230469 C 1.289062 -14.230469 1.261719 -14.101562 1.261719 -13.945312 L 2.371094 -12.167969 L 2.371094 -0.671875 C 2.371094 -0.257812 2.527344 0 2.9375 0 L 4.433594 0 C 4.847656 0 5 -0.179688 5 -0.59375 C 5 -1.082031 4.796875 -1.261719 4.511719 -1.726562 L 2.734375 -4.5625 L 2.734375 -11.574219 L 8.402344 -2.550781 L 8.816406 -2.550781 L 13.921875 -10.90625 L 13.921875 -0.671875 C 13.921875 -0.257812 14.074219 0 14.488281 0 Z M 18.328125 0 "/></g></g></g><g fill="#ffffff" fill-opacity="1"><g transform="translate(99.123187, 152.35444)"><g><path d="M 8.402344 0.257812 C 12.453125 0.257812 13.636719 -1.726562 13.636719 -6.007812 L 13.636719 -13.558594 C 13.636719 -13.972656 13.484375 -14.230469 13.070312 -14.230469 L 10.183594 -14.230469 C 10.054688 -14.230469 10.003906 -14.152344 10.003906 -14.050781 L 10.003906 -11.058594 C 10.003906 -10.878906 10.003906 -10.75 10.183594 -10.542969 L 13.328125 -6.417969 L 13.328125 -6.007812 C 13.328125 -1.625 11.730469 -0.101562 8.84375 -0.101562 L 8.402344 -0.101562 C 7.011719 -0.101562 6.265625 -1.210938 6.265625 -6.007812 L 6.265625 -13.558594 C 6.265625 -13.972656 6.109375 -14.230469 5.695312 -14.230469 L 1.984375 -14.230469 C 1.574219 -14.230469 1.417969 -13.972656 1.417969 -13.558594 L 1.417969 -6.007812 C 1.417969 -1.726562 3.300781 0.257812 8.402344 0.257812 Z M 8.402344 0.257812 "/></g></g></g><g fill="#ffffff" fill-opacity="1"><g transform="translate(114.176072, 152.35444)"><g><path d="M 15.671875 0 C 16.113281 0 16.242188 -0.359375 16.007812 -0.671875 L 13.042969 -4.5625 C 12.863281 -4.796875 12.554688 -4.796875 12.269531 -4.796875 C 9.746094 -4.796875 8.660156 -5.59375 7.992188 -6.394531 L 8.609375 -6.394531 C 12.632812 -6.394531 14.71875 -7.191406 14.71875 -10.441406 C 14.71875 -13.429688 12.632812 -14.230469 8.609375 -14.230469 L 2.628906 -14.230469 C 2.21875 -14.230469 2.0625 -13.972656 2.0625 -13.558594 L 2.0625 -0.671875 C 2.0625 -0.257812 2.21875 0 2.628906 0 L 5.902344 0 C 6.316406 0 6.46875 -0.257812 6.46875 -0.671875 L 6.46875 -6.394531 L 7.5 -6.394531 L 11.445312 -0.671875 C 11.753906 -0.257812 12.167969 0 12.582031 0 Z M 7.757812 -13.871094 C 9.304688 -13.871094 10.285156 -13.664062 10.285156 -10.441406 C 10.285156 -7.21875 9.304688 -6.753906 7.757812 -6.753906 L 6.46875 -6.753906 L 6.46875 -13.871094 Z M 7.757812 -13.871094 "/></g></g></g><g fill="#ffffff" fill-opacity="1"><g transform="translate(130.698156, 152.35444)"><g><path d="M 9.203125 -13.558594 C 9.046875 -13.921875 8.714844 -14.230469 8.273438 -14.230469 L 6.960938 -14.230469 C 6.597656 -14.230469 6.238281 -13.921875 6.082031 -13.558594 L 0.308594 -0.671875 C 0.179688 -0.335938 0.308594 0 0.722656 0 L 4.433594 0 C 4.976562 0 5.179688 -0.285156 5 -0.671875 L 3.09375 -4.925781 L 8.222656 -4.925781 L 10.132812 -0.671875 C 10.3125 -0.285156 10.59375 0 11.058594 0 L 14.566406 0 C 14.976562 0 15.105469 -0.335938 14.976562 -0.671875 Z M 8.070312 -5.285156 L 2.808594 -5.285156 L 5.414062 -11.238281 Z M 8.070312 -5.285156 "/></g></g></g></svg>