<svg xmlns="http://www.w3.org/2000/svg" xmlns:xlink="http://www.w3.org/1999/xlink" width="500" zoomAndPan="magnify" viewBox="0 0 375 374.999991" height="500" preserveAspectRatio="xMidYMid meet" version="1.0"><defs><g/><clipPath id="7504fc0a8a"><path d="M 158 111.890625 L 171 111.890625 L 171 153 L 158 153 Z M 158 111.890625 " clip-rule="nonzero"/></clipPath><clipPath id="bbba7db586"><path d="M 191 111.890625 L 206 111.890625 L 206 153 L 191 153 Z M 191 111.890625 " clip-rule="nonzero"/></clipPath><clipPath id="f6c4b6bb56"><path d="M 204 210 L 217 210 L 217 251.390625 L 204 251.390625 Z M 204 210 " clip-rule="nonzero"/></clipPath><clipPath id="61b415182c"><path d="M 169 210 L 184 210 L 184 251.390625 L 169 251.390625 Z M 169 210 " clip-rule="nonzero"/></clipPath><clipPath id="4080ea3270"><path d="M 216 152 L 257.183594 152 L 257.183594 165 L 216 165 Z M 216 152 " clip-rule="nonzero"/></clipPath><clipPath id="2ccc5b6c1e"><path d="M 216 185 L 257.183594 185 L 257.183594 201 L 216 201 Z M 216 185 " clip-rule="nonzero"/></clipPath><clipPath id="78fd242fdf"><path d="M 117.683594 198 L 159 198 L 159 211 L 117.683594 211 Z M 117.683594 198 " clip-rule="nonzero"/></clipPath><clipPath id="16982aaa02"><path d="M 117.683594 163 L 159 163 L 159 178 L 117.683594 178 Z M 117.683594 163 " clip-rule="nonzero"/></clipPath></defs><path fill="#3e5abd" d="M 217.425781 212.773438 L 157.394531 212.773438 C 156.789062 212.773438 156.324219 212.308594 156.324219 211.703125 L 156.324219 151.625 C 156.324219 151.019531 156.789062 150.554688 157.394531 150.554688 L 217.472656 150.554688 C 218.078125 150.554688 218.542969 151.019531 218.542969 151.625 L 218.542969 211.703125 C 218.542969 212.261719 218.03125 212.773438 217.425781 212.773438 Z M 158.464844 210.585938 L 216.355469 210.585938 L 216.355469 152.695312 L 158.464844 152.695312 Z M 158.464844 210.585938 " fill-opacity="1" fill-rule="nonzero"/><path fill="#3e5abd" d="M 195.058594 190.359375 L 179.761719 190.359375 C 179.15625 190.359375 178.691406 189.894531 178.691406 189.289062 L 178.691406 173.992188 C 178.691406 173.386719 179.15625 172.921875 179.761719 172.921875 L 195.058594 172.921875 C 195.664062 172.921875 196.128906 173.386719 196.128906 173.992188 L 196.128906 189.289062 C 196.128906 189.894531 195.664062 190.359375 195.058594 190.359375 Z M 180.832031 188.222656 L 193.941406 188.222656 L 193.941406 175.109375 L 180.832031 175.109375 Z M 180.832031 188.222656 " fill-opacity="1" fill-rule="nonzero"/><path fill="#3e5abd" d="M 187.386719 183.570312 C 186.78125 183.570312 186.316406 183.105469 186.316406 182.5 L 186.316406 180.828125 C 186.316406 180.222656 186.78125 179.757812 187.386719 179.757812 C 187.992188 179.757812 188.457031 180.222656 188.457031 180.828125 L 188.457031 182.5 C 188.503906 183.058594 187.992188 183.570312 187.386719 183.570312 Z M 187.386719 183.570312 " fill-opacity="1" fill-rule="nonzero"/><path fill="#d97be9" d="M 162.460938 161.203125 C 161.859375 161.203125 161.394531 160.738281 161.394531 160.136719 L 161.394531 157.066406 C 161.394531 156.460938 161.859375 155.996094 162.460938 155.996094 C 163.066406 155.996094 163.53125 156.460938 163.53125 157.066406 L 163.53125 160.136719 C 163.53125 160.738281 163.019531 161.203125 162.460938 161.203125 Z M 162.460938 161.203125 " fill-opacity="1" fill-rule="nonzero"/><path fill="#d97be9" d="M 167.4375 161.203125 C 166.832031 161.203125 166.367188 160.738281 166.367188 160.136719 L 166.367188 157.066406 C 166.367188 156.460938 166.832031 155.996094 167.4375 155.996094 C 168.042969 155.996094 168.507812 156.460938 168.507812 157.066406 L 168.507812 160.136719 C 168.507812 160.738281 168.042969 161.203125 167.4375 161.203125 Z M 167.4375 161.203125 " fill-opacity="1" fill-rule="nonzero"/><path fill="#d97be9" d="M 172.414062 161.203125 C 171.808594 161.203125 171.34375 160.738281 171.34375 160.136719 L 171.34375 157.066406 C 171.34375 156.460938 171.808594 155.996094 172.414062 155.996094 C 173.019531 155.996094 173.484375 156.460938 173.484375 157.066406 L 173.484375 160.136719 C 173.53125 160.738281 173.019531 161.203125 172.414062 161.203125 Z M 172.414062 161.203125 " fill-opacity="1" fill-rule="nonzero"/><path fill="#d97be9" d="M 177.4375 161.203125 C 176.832031 161.203125 176.367188 160.738281 176.367188 160.136719 L 176.367188 157.066406 C 176.367188 156.460938 176.832031 155.996094 177.4375 155.996094 C 178.039062 155.996094 178.503906 156.460938 178.503906 157.066406 L 178.503906 160.136719 C 178.503906 160.738281 178.039062 161.203125 177.4375 161.203125 Z M 177.4375 161.203125 " fill-opacity="1" fill-rule="nonzero"/><path fill="#d97be9" d="M 182.410156 161.203125 C 181.808594 161.203125 181.339844 160.738281 181.339844 160.136719 L 181.339844 157.066406 C 181.339844 156.460938 181.808594 155.996094 182.410156 155.996094 C 183.015625 155.996094 183.480469 156.460938 183.480469 157.066406 L 183.480469 160.136719 C 183.480469 160.738281 183.015625 161.203125 182.410156 161.203125 Z M 182.410156 161.203125 " fill-opacity="1" fill-rule="nonzero"/><path fill="#d97be9" d="M 187.386719 161.203125 C 186.78125 161.203125 186.316406 160.738281 186.316406 160.136719 L 186.316406 157.066406 C 186.316406 156.460938 186.78125 155.996094 187.386719 155.996094 C 187.992188 155.996094 188.457031 156.460938 188.457031 157.066406 L 188.457031 160.136719 C 188.503906 160.738281 187.992188 161.203125 187.386719 161.203125 Z M 187.386719 161.203125 " fill-opacity="1" fill-rule="nonzero"/><path fill="#d97be9" d="M 192.410156 161.203125 C 191.804688 161.203125 191.339844 160.738281 191.339844 160.136719 L 191.339844 157.066406 C 191.339844 156.460938 191.804688 155.996094 192.410156 155.996094 C 193.011719 155.996094 193.476562 156.460938 193.476562 157.066406 L 193.476562 160.136719 C 193.476562 160.738281 193.011719 161.203125 192.410156 161.203125 Z M 192.410156 161.203125 " fill-opacity="1" fill-rule="nonzero"/><path fill="#d97be9" d="M 197.382812 161.203125 C 196.78125 161.203125 196.316406 160.738281 196.316406 160.136719 L 196.316406 157.066406 C 196.316406 156.460938 196.78125 155.996094 197.382812 155.996094 C 197.988281 155.996094 198.453125 156.460938 198.453125 157.066406 L 198.453125 160.136719 C 198.5 160.738281 197.988281 161.203125 197.382812 161.203125 Z M 197.382812 161.203125 " fill-opacity="1" fill-rule="nonzero"/><path fill="#d97be9" d="M 202.40625 161.203125 C 201.800781 161.203125 201.335938 160.738281 201.335938 160.136719 L 201.335938 157.066406 C 201.335938 156.460938 201.800781 155.996094 202.40625 155.996094 C 203.011719 155.996094 203.476562 156.460938 203.476562 157.066406 L 203.476562 160.136719 C 203.476562 160.738281 203.011719 161.203125 202.40625 161.203125 Z M 202.40625 161.203125 " fill-opacity="1" fill-rule="nonzero"/><path fill="#d97be9" d="M 207.382812 161.203125 C 206.777344 161.203125 206.3125 160.738281 206.3125 160.136719 L 206.3125 157.066406 C 206.3125 156.460938 206.777344 155.996094 207.382812 155.996094 C 207.984375 155.996094 208.453125 156.460938 208.453125 157.066406 L 208.453125 160.136719 C 208.453125 160.738281 207.984375 161.203125 207.382812 161.203125 Z M 207.382812 161.203125 " fill-opacity="1" fill-rule="nonzero"/><path fill="#d97be9" d="M 212.355469 161.203125 C 211.753906 161.203125 211.289062 160.738281 211.289062 160.136719 L 211.289062 157.066406 C 211.289062 156.460938 211.753906 155.996094 212.355469 155.996094 C 212.960938 155.996094 213.425781 156.460938 213.425781 157.066406 L 213.425781 160.136719 C 213.472656 160.738281 212.960938 161.203125 212.355469 161.203125 Z M 212.355469 161.203125 " fill-opacity="1" fill-rule="nonzero"/><path fill="#d97be9" d="M 162.460938 170.410156 C 161.859375 170.410156 161.394531 169.945312 161.394531 169.34375 L 161.394531 166.273438 C 161.394531 165.667969 161.859375 165.203125 162.460938 165.203125 C 163.066406 165.203125 163.53125 165.667969 163.53125 166.273438 L 163.53125 169.34375 C 163.53125 169.945312 163.019531 170.410156 162.460938 170.410156 Z M 162.460938 170.410156 " fill-opacity="1" fill-rule="nonzero"/><path fill="#d97be9" d="M 167.4375 170.410156 C 166.832031 170.410156 166.367188 169.945312 166.367188 169.34375 L 166.367188 166.273438 C 166.367188 165.667969 166.832031 165.203125 167.4375 165.203125 C 168.042969 165.203125 168.507812 165.667969 168.507812 166.273438 L 168.507812 169.34375 C 168.507812 169.945312 168.042969 170.410156 167.4375 170.410156 Z M 167.4375 170.410156 " fill-opacity="1" fill-rule="nonzero"/><path fill="#d97be9" d="M 207.382812 170.410156 C 206.777344 170.410156 206.3125 169.945312 206.3125 169.34375 L 206.3125 166.273438 C 206.3125 165.667969 206.777344 165.203125 207.382812 165.203125 C 207.984375 165.203125 208.453125 165.667969 208.453125 166.273438 L 208.453125 169.34375 C 208.453125 169.945312 207.984375 170.410156 207.382812 170.410156 Z M 207.382812 170.410156 " fill-opacity="1" fill-rule="nonzero"/><path fill="#d97be9" d="M 212.355469 170.410156 C 211.753906 170.410156 211.289062 169.945312 211.289062 169.34375 L 211.289062 166.273438 C 211.289062 165.667969 211.753906 165.203125 212.355469 165.203125 C 212.960938 165.203125 213.425781 165.667969 213.425781 166.273438 L 213.425781 169.34375 C 213.472656 169.945312 212.960938 170.410156 212.355469 170.410156 Z M 212.355469 170.410156 " fill-opacity="1" fill-rule="nonzero"/><path fill="#d97be9" d="M 162.460938 179.664062 C 161.859375 179.664062 161.394531 179.199219 161.394531 178.59375 L 161.394531 175.527344 C 161.394531 174.921875 161.859375 174.457031 162.460938 174.457031 C 163.066406 174.457031 163.53125 174.921875 163.53125 175.527344 L 163.53125 178.59375 C 163.53125 179.152344 163.019531 179.664062 162.460938 179.664062 Z M 162.460938 179.664062 " fill-opacity="1" fill-rule="nonzero"/><path fill="#d97be9" d="M 167.4375 179.664062 C 166.832031 179.664062 166.367188 179.199219 166.367188 178.59375 L 166.367188 175.527344 C 166.367188 174.921875 166.832031 174.457031 167.4375 174.457031 C 168.042969 174.457031 168.507812 174.921875 168.507812 175.527344 L 168.507812 178.59375 C 168.507812 179.152344 168.042969 179.664062 167.4375 179.664062 Z M 167.4375 179.664062 " fill-opacity="1" fill-rule="nonzero"/><path fill="#d97be9" d="M 207.382812 179.664062 C 206.777344 179.664062 206.3125 179.199219 206.3125 178.59375 L 206.3125 175.527344 C 206.3125 174.921875 206.777344 174.457031 207.382812 174.457031 C 207.984375 174.457031 208.453125 174.921875 208.453125 175.527344 L 208.453125 178.59375 C 208.453125 179.152344 207.984375 179.664062 207.382812 179.664062 Z M 207.382812 179.664062 " fill-opacity="1" fill-rule="nonzero"/><path fill="#d97be9" d="M 212.355469 179.664062 C 211.753906 179.664062 211.289062 179.199219 211.289062 178.59375 L 211.289062 175.527344 C 211.289062 174.921875 211.753906 174.457031 212.355469 174.457031 C 212.960938 174.457031 213.425781 174.921875 213.425781 175.527344 L 213.425781 178.59375 C 213.472656 179.152344 212.960938 179.664062 212.355469 179.664062 Z M 212.355469 179.664062 " fill-opacity="1" fill-rule="nonzero"/><path fill="#d97be9" d="M 162.460938 188.871094 C 161.859375 188.871094 161.394531 188.40625 161.394531 187.800781 L 161.394531 184.734375 C 161.394531 184.128906 161.859375 183.664062 162.460938 183.664062 C 163.066406 183.664062 163.53125 184.128906 163.53125 184.734375 L 163.53125 187.800781 C 163.53125 188.359375 163.019531 188.871094 162.460938 188.871094 Z M 162.460938 188.871094 " fill-opacity="1" fill-rule="nonzero"/><path fill="#d97be9" d="M 167.4375 188.871094 C 166.832031 188.871094 166.367188 188.40625 166.367188 187.800781 L 166.367188 184.734375 C 166.367188 184.128906 166.832031 183.664062 167.4375 183.664062 C 168.042969 183.664062 168.507812 184.128906 168.507812 184.734375 L 168.507812 187.800781 C 168.507812 188.359375 168.042969 188.871094 167.4375 188.871094 Z M 167.4375 188.871094 " fill-opacity="1" fill-rule="nonzero"/><path fill="#d97be9" d="M 207.382812 188.871094 C 206.777344 188.871094 206.3125 188.40625 206.3125 187.800781 L 206.3125 184.734375 C 206.3125 184.128906 206.777344 183.664062 207.382812 183.664062 C 207.984375 183.664062 208.453125 184.128906 208.453125 184.734375 L 208.453125 187.800781 C 208.453125 188.359375 207.984375 188.871094 207.382812 188.871094 Z M 207.382812 188.871094 " fill-opacity="1" fill-rule="nonzero"/><path fill="#d97be9" d="M 212.355469 188.871094 C 211.753906 188.871094 211.289062 188.40625 211.289062 187.800781 L 211.289062 184.734375 C 211.289062 184.128906 211.753906 183.664062 212.355469 183.664062 C 212.960938 183.664062 213.425781 184.128906 213.425781 184.734375 L 213.425781 187.800781 C 213.472656 188.359375 212.960938 188.871094 212.355469 188.871094 Z M 212.355469 188.871094 " fill-opacity="1" fill-rule="nonzero"/><path fill="#d97be9" d="M 162.460938 198.078125 C 161.859375 198.078125 161.394531 197.613281 161.394531 197.007812 L 161.394531 193.941406 C 161.394531 193.335938 161.859375 192.871094 162.460938 192.871094 C 163.066406 192.871094 163.53125 193.335938 163.53125 193.941406 L 163.53125 197.007812 C 163.53125 197.613281 163.019531 198.078125 162.460938 198.078125 Z M 162.460938 198.078125 " fill-opacity="1" fill-rule="nonzero"/><path fill="#d97be9" d="M 167.4375 198.078125 C 166.832031 198.078125 166.367188 197.613281 166.367188 197.007812 L 166.367188 193.941406 C 166.367188 193.335938 166.832031 192.871094 167.4375 192.871094 C 168.042969 192.871094 168.507812 193.335938 168.507812 193.941406 L 168.507812 197.007812 C 168.507812 197.613281 168.042969 198.078125 167.4375 198.078125 Z M 167.4375 198.078125 " fill-opacity="1" fill-rule="nonzero"/><path fill="#d97be9" d="M 207.382812 198.078125 C 206.777344 198.078125 206.3125 197.613281 206.3125 197.007812 L 206.3125 193.941406 C 206.3125 193.335938 206.777344 192.871094 207.382812 192.871094 C 207.984375 192.871094 208.453125 193.335938 208.453125 193.941406 L 208.453125 197.007812 C 208.453125 197.613281 207.984375 198.078125 207.382812 198.078125 Z M 207.382812 198.078125 " fill-opacity="1" fill-rule="nonzero"/><path fill="#d97be9" d="M 212.355469 198.078125 C 211.753906 198.078125 211.289062 197.613281 211.289062 197.007812 L 211.289062 193.941406 C 211.289062 193.335938 211.753906 192.871094 212.355469 192.871094 C 212.960938 192.871094 213.425781 193.335938 213.425781 193.941406 L 213.425781 197.007812 C 213.472656 197.613281 212.960938 198.078125 212.355469 198.078125 Z M 212.355469 198.078125 " fill-opacity="1" fill-rule="nonzero"/><path fill="#d97be9" d="M 162.460938 207.285156 C 161.859375 207.285156 161.394531 206.820312 161.394531 206.214844 L 161.394531 203.148438 C 161.394531 202.542969 161.859375 202.078125 162.460938 202.078125 C 163.066406 202.078125 163.53125 202.542969 163.53125 203.148438 L 163.53125 206.214844 C 163.53125 206.820312 163.019531 207.285156 162.460938 207.285156 Z M 162.460938 207.285156 " fill-opacity="1" fill-rule="nonzero"/><path fill="#d97be9" d="M 167.4375 207.285156 C 166.832031 207.285156 166.367188 206.820312 166.367188 206.214844 L 166.367188 203.148438 C 166.367188 202.542969 166.832031 202.078125 167.4375 202.078125 C 168.042969 202.078125 168.507812 202.542969 168.507812 203.148438 L 168.507812 206.214844 C 168.507812 206.820312 168.042969 207.285156 167.4375 207.285156 Z M 167.4375 207.285156 " fill-opacity="1" fill-rule="nonzero"/><path fill="#d97be9" d="M 172.414062 207.285156 C 171.808594 207.285156 171.34375 206.820312 171.34375 206.214844 L 171.34375 203.148438 C 171.34375 202.542969 171.808594 202.078125 172.414062 202.078125 C 173.019531 202.078125 173.484375 202.542969 173.484375 203.148438 L 173.484375 206.214844 C 173.53125 206.820312 173.019531 207.285156 172.414062 207.285156 Z M 172.414062 207.285156 " fill-opacity="1" fill-rule="nonzero"/><path fill="#d97be9" d="M 177.4375 207.285156 C 176.832031 207.285156 176.367188 206.820312 176.367188 206.214844 L 176.367188 203.148438 C 176.367188 202.542969 176.832031 202.078125 177.4375 202.078125 C 178.039062 202.078125 178.503906 202.542969 178.503906 203.148438 L 178.503906 206.214844 C 178.503906 206.820312 178.039062 207.285156 177.4375 207.285156 Z M 177.4375 207.285156 " fill-opacity="1" fill-rule="nonzero"/><path fill="#d97be9" d="M 182.410156 207.285156 C 181.808594 207.285156 181.339844 206.820312 181.339844 206.214844 L 181.339844 203.148438 C 181.339844 202.542969 181.808594 202.078125 182.410156 202.078125 C 183.015625 202.078125 183.480469 202.542969 183.480469 203.148438 L 183.480469 206.214844 C 183.480469 206.820312 183.015625 207.285156 182.410156 207.285156 Z M 182.410156 207.285156 " fill-opacity="1" fill-rule="nonzero"/><path fill="#d97be9" d="M 187.386719 207.285156 C 186.78125 207.285156 186.316406 206.820312 186.316406 206.214844 L 186.316406 203.148438 C 186.316406 202.542969 186.78125 202.078125 187.386719 202.078125 C 187.992188 202.078125 188.457031 202.542969 188.457031 203.148438 L 188.457031 206.214844 C 188.503906 206.820312 187.992188 207.285156 187.386719 207.285156 Z M 187.386719 207.285156 " fill-opacity="1" fill-rule="nonzero"/><path fill="#d97be9" d="M 192.410156 207.285156 C 191.804688 207.285156 191.339844 206.820312 191.339844 206.214844 L 191.339844 203.148438 C 191.339844 202.542969 191.804688 202.078125 192.410156 202.078125 C 193.011719 202.078125 193.476562 202.542969 193.476562 203.148438 L 193.476562 206.214844 C 193.476562 206.820312 193.011719 207.285156 192.410156 207.285156 Z M 192.410156 207.285156 " fill-opacity="1" fill-rule="nonzero"/><path fill="#d97be9" d="M 197.382812 207.285156 C 196.78125 207.285156 196.316406 206.820312 196.316406 206.214844 L 196.316406 203.148438 C 196.316406 202.542969 196.78125 202.078125 197.382812 202.078125 C 197.988281 202.078125 198.453125 202.542969 198.453125 203.148438 L 198.453125 206.214844 C 198.5 206.820312 197.988281 207.285156 197.382812 207.285156 Z M 197.382812 207.285156 " fill-opacity="1" fill-rule="nonzero"/><path fill="#d97be9" d="M 202.40625 207.285156 C 201.800781 207.285156 201.335938 206.820312 201.335938 206.214844 L 201.335938 203.148438 C 201.335938 202.542969 201.800781 202.078125 202.40625 202.078125 C 203.011719 202.078125 203.476562 202.542969 203.476562 203.148438 L 203.476562 206.214844 C 203.476562 206.820312 203.011719 207.285156 202.40625 207.285156 Z M 202.40625 207.285156 " fill-opacity="1" fill-rule="nonzero"/><path fill="#d97be9" d="M 207.382812 207.285156 C 206.777344 207.285156 206.3125 206.820312 206.3125 206.214844 L 206.3125 203.148438 C 206.3125 202.542969 206.777344 202.078125 207.382812 202.078125 C 207.984375 202.078125 208.453125 202.542969 208.453125 203.148438 L 208.453125 206.214844 C 208.453125 206.820312 207.984375 207.285156 207.382812 207.285156 Z M 207.382812 207.285156 " fill-opacity="1" fill-rule="nonzero"/><path fill="#d97be9" d="M 212.355469 207.285156 C 211.753906 207.285156 211.289062 206.820312 211.289062 206.214844 L 211.289062 203.148438 C 211.289062 202.542969 211.753906 202.078125 212.355469 202.078125 C 212.960938 202.078125 213.425781 202.542969 213.425781 203.148438 L 213.425781 206.214844 C 213.472656 206.820312 212.960938 207.285156 212.355469 207.285156 Z M 212.355469 207.285156 " fill-opacity="1" fill-rule="nonzero"/><g clip-path="url(#7504fc0a8a)"><path fill="#3e5abd" d="M 169.390625 152.695312 C 168.785156 152.695312 168.320312 152.230469 168.320312 151.625 L 168.320312 136.09375 L 158.511719 126.28125 C 158.324219 126.097656 158.183594 125.816406 158.183594 125.492188 L 158.183594 112.984375 C 158.183594 112.378906 158.648438 111.914062 159.253906 111.914062 C 159.859375 111.914062 160.324219 112.378906 160.324219 112.984375 L 160.324219 125.074219 L 170.136719 134.886719 C 170.320312 135.070312 170.460938 135.351562 170.460938 135.675781 L 170.460938 151.625 C 170.507812 152.230469 169.996094 152.695312 169.390625 152.695312 Z M 169.390625 152.695312 " fill-opacity="1" fill-rule="nonzero"/></g><path fill="#3e5abd" d="M 178.691406 152.695312 C 178.085938 152.695312 177.621094 152.230469 177.621094 151.625 L 177.621094 139.535156 C 177.621094 139.257812 177.714844 138.976562 177.949219 138.746094 L 184.734375 131.957031 L 184.734375 121.445312 C 184.734375 120.84375 185.203125 120.378906 185.804688 120.378906 C 186.410156 120.378906 186.875 120.84375 186.875 121.445312 L 186.875 132.421875 C 186.875 132.699219 186.78125 132.980469 186.550781 133.210938 L 179.761719 140 L 179.761719 151.671875 C 179.808594 152.230469 179.296875 152.695312 178.691406 152.695312 Z M 178.691406 152.695312 " fill-opacity="1" fill-rule="nonzero"/><g clip-path="url(#bbba7db586)"><path fill="#3e5abd" d="M 200.730469 152.695312 C 200.453125 152.695312 200.175781 152.601562 199.941406 152.371094 L 191.945312 144.371094 C 191.757812 144.1875 191.617188 143.90625 191.617188 143.582031 L 191.617188 135.628906 C 191.617188 135.351562 191.710938 135.070312 191.945312 134.839844 L 203.617188 123.167969 L 203.617188 112.984375 C 203.617188 112.378906 204.082031 111.914062 204.683594 111.914062 C 205.289062 111.914062 205.753906 112.378906 205.753906 112.984375 L 205.753906 123.632812 C 205.753906 123.910156 205.660156 124.191406 205.429688 124.421875 L 193.851562 136.09375 L 193.851562 143.164062 L 201.523438 150.835938 C 201.941406 151.253906 201.941406 151.953125 201.523438 152.371094 C 201.289062 152.601562 201.011719 152.695312 200.730469 152.695312 Z M 200.730469 152.695312 " fill-opacity="1" fill-rule="nonzero"/></g><path fill="#3e5abd" d="M 208.683594 152.695312 C 208.078125 152.695312 207.613281 152.230469 207.613281 151.625 L 207.613281 141.675781 C 207.613281 141.394531 207.707031 141.117188 207.941406 140.882812 L 214.496094 134.328125 L 214.496094 127.304688 C 214.496094 126.703125 214.960938 126.238281 215.566406 126.238281 C 216.171875 126.238281 216.636719 126.703125 216.636719 127.304688 L 216.636719 134.839844 C 216.636719 135.117188 216.542969 135.398438 216.308594 135.628906 L 209.753906 142.140625 L 209.753906 151.625 C 209.753906 152.230469 209.289062 152.695312 208.683594 152.695312 Z M 208.683594 152.695312 " fill-opacity="1" fill-rule="nonzero"/><g clip-path="url(#f6c4b6bb56)"><path fill="#3e5abd" d="M 215.519531 251.367188 C 214.914062 251.367188 214.449219 250.902344 214.449219 250.296875 L 214.449219 238.207031 L 204.636719 228.398438 C 204.453125 228.210938 204.3125 227.933594 204.3125 227.605469 L 204.3125 211.65625 C 204.3125 211.050781 204.777344 210.585938 205.382812 210.585938 C 205.988281 210.585938 206.453125 211.050781 206.453125 211.65625 L 206.453125 227.1875 L 216.261719 237 C 216.449219 237.1875 216.589844 237.464844 216.589844 237.789062 L 216.589844 250.296875 C 216.636719 250.855469 216.125 251.367188 215.519531 251.367188 Z M 215.519531 251.367188 " fill-opacity="1" fill-rule="nonzero"/></g><path fill="#3e5abd" d="M 189.015625 242.953125 C 188.410156 242.953125 187.945312 242.488281 187.945312 241.882812 L 187.945312 230.90625 C 187.945312 230.628906 188.039062 230.351562 188.269531 230.117188 L 195.058594 223.328125 L 195.058594 211.65625 C 195.058594 211.050781 195.523438 210.585938 196.128906 210.585938 C 196.734375 210.585938 197.199219 211.050781 197.199219 211.65625 L 197.199219 223.746094 C 197.199219 224.027344 197.105469 224.304688 196.871094 224.539062 L 190.082031 231.328125 L 190.082031 241.835938 C 190.128906 242.441406 189.617188 242.953125 189.015625 242.953125 Z M 189.015625 242.953125 " fill-opacity="1" fill-rule="nonzero"/><g clip-path="url(#61b415182c)"><path fill="#3e5abd" d="M 170.089844 251.367188 C 169.484375 251.367188 169.019531 250.902344 169.019531 250.296875 L 169.019531 239.648438 C 169.019531 239.371094 169.113281 239.09375 169.34375 238.859375 L 181.015625 227.1875 L 181.015625 220.121094 L 173.34375 212.449219 C 172.925781 212.027344 172.925781 211.332031 173.34375 210.914062 C 173.761719 210.496094 174.460938 210.496094 174.878906 210.914062 L 182.875 218.910156 C 183.0625 219.097656 183.203125 219.375 183.203125 219.703125 L 183.203125 227.699219 C 183.203125 227.980469 183.109375 228.257812 182.875 228.488281 L 171.160156 240.070312 L 171.160156 250.253906 C 171.160156 250.855469 170.691406 251.367188 170.089844 251.367188 Z M 170.089844 251.367188 " fill-opacity="1" fill-rule="nonzero"/></g><path fill="#3e5abd" d="M 159.300781 237.09375 C 158.695312 237.09375 158.230469 236.628906 158.230469 236.023438 L 158.230469 228.488281 C 158.230469 228.210938 158.324219 227.933594 158.558594 227.699219 L 165.113281 221.144531 L 165.113281 211.65625 C 165.113281 211.050781 165.578125 210.585938 166.183594 210.585938 C 166.789062 210.585938 167.253906 211.050781 167.253906 211.65625 L 167.253906 221.609375 C 167.253906 221.886719 167.160156 222.167969 166.925781 222.398438 L 160.371094 228.957031 L 160.371094 236.023438 C 160.371094 236.582031 159.90625 237.09375 159.300781 237.09375 Z M 159.300781 237.09375 " fill-opacity="1" fill-rule="nonzero"/><g clip-path="url(#4080ea3270)"><path fill="#3e5abd" d="M 233.421875 164.738281 L 217.472656 164.738281 C 216.867188 164.738281 216.402344 164.273438 216.402344 163.667969 C 216.402344 163.066406 216.867188 162.601562 217.472656 162.601562 L 233.003906 162.601562 L 242.769531 152.742188 C 242.953125 152.554688 243.234375 152.417969 243.558594 152.417969 L 256.066406 152.417969 C 256.671875 152.417969 257.136719 152.882812 257.136719 153.484375 C 257.136719 154.089844 256.671875 154.554688 256.066406 154.554688 L 243.976562 154.554688 L 234.164062 164.367188 C 233.980469 164.597656 233.699219 164.738281 233.421875 164.738281 Z M 233.421875 164.738281 " fill-opacity="1" fill-rule="nonzero"/></g><path fill="#3e5abd" d="M 247.605469 181.105469 L 236.628906 181.105469 C 236.351562 181.105469 236.074219 181.015625 235.839844 180.78125 L 229.050781 173.992188 L 217.378906 173.992188 C 216.773438 173.992188 216.308594 173.527344 216.308594 172.921875 C 216.308594 172.316406 216.773438 171.851562 217.378906 171.851562 L 229.46875 171.851562 C 229.75 171.851562 230.027344 171.945312 230.261719 172.179688 L 237.046875 178.96875 L 247.558594 178.96875 C 248.164062 178.96875 248.628906 179.433594 248.628906 180.039062 C 248.71875 180.640625 248.207031 181.105469 247.605469 181.105469 Z M 247.605469 181.105469 " fill-opacity="1" fill-rule="nonzero"/><g clip-path="url(#2ccc5b6c1e)"><path fill="#3e5abd" d="M 256.066406 200.078125 L 245.417969 200.078125 C 245.140625 200.078125 244.859375 199.984375 244.628906 199.753906 L 232.957031 188.082031 L 225.890625 188.082031 L 218.214844 195.753906 C 217.796875 196.171875 217.101562 196.171875 216.683594 195.753906 C 216.261719 195.335938 216.261719 194.636719 216.683594 194.21875 L 224.679688 186.222656 C 224.867188 186.035156 225.144531 185.894531 225.46875 185.894531 L 233.46875 185.894531 C 233.746094 185.894531 234.027344 185.988281 234.257812 186.222656 L 245.929688 197.894531 L 256.113281 197.894531 C 256.71875 197.894531 257.183594 198.359375 257.183594 198.960938 C 257.136719 199.566406 256.625 200.078125 256.066406 200.078125 Z M 256.066406 200.078125 " fill-opacity="1" fill-rule="nonzero"/></g><path fill="#3e5abd" d="M 241.746094 210.867188 L 234.210938 210.867188 C 233.933594 210.867188 233.652344 210.773438 233.421875 210.542969 L 226.910156 203.984375 L 217.425781 203.984375 C 216.820312 203.984375 216.355469 203.519531 216.355469 202.914062 C 216.355469 202.3125 216.820312 201.84375 217.425781 201.84375 L 227.375 201.84375 C 227.65625 201.84375 227.933594 201.9375 228.167969 202.171875 L 234.722656 208.726562 L 241.792969 208.726562 C 242.394531 208.726562 242.859375 209.191406 242.859375 209.796875 C 242.859375 210.355469 242.351562 210.867188 241.746094 210.867188 Z M 241.746094 210.867188 " fill-opacity="1" fill-rule="nonzero"/><g clip-path="url(#78fd242fdf)"><path fill="#3e5abd" d="M 131.308594 210.867188 L 118.753906 210.867188 C 118.148438 210.867188 117.683594 210.402344 117.683594 209.796875 C 117.683594 209.191406 118.148438 208.726562 118.753906 208.726562 L 130.84375 208.726562 L 140.652344 198.871094 C 140.839844 198.683594 141.121094 198.542969 141.445312 198.542969 L 157.394531 198.542969 C 158 198.542969 158.464844 199.007812 158.464844 199.613281 C 158.464844 200.21875 158 200.683594 157.394531 200.683594 L 141.863281 200.683594 L 132.050781 210.496094 C 131.867188 210.726562 131.585938 210.867188 131.308594 210.867188 Z M 131.308594 210.867188 " fill-opacity="1" fill-rule="nonzero"/></g><path fill="#3e5abd" d="M 157.394531 191.429688 L 145.304688 191.429688 C 145.023438 191.429688 144.746094 191.335938 144.515625 191.105469 L 137.726562 184.316406 L 127.214844 184.316406 C 126.609375 184.316406 126.144531 183.851562 126.144531 183.246094 C 126.144531 182.640625 126.609375 182.175781 127.214844 182.175781 L 138.191406 182.175781 C 138.46875 182.175781 138.746094 182.269531 138.980469 182.5 L 145.769531 189.289062 L 157.441406 189.289062 C 158.046875 189.289062 158.511719 189.753906 158.511719 190.359375 C 158.511719 190.964844 158 191.429688 157.394531 191.429688 Z M 157.394531 191.429688 " fill-opacity="1" fill-rule="nonzero"/><g clip-path="url(#16982aaa02)"><path fill="#3e5abd" d="M 149.394531 177.386719 L 141.398438 177.386719 C 141.121094 177.386719 140.839844 177.292969 140.609375 177.0625 L 128.984375 165.390625 L 118.753906 165.390625 C 118.148438 165.390625 117.683594 164.925781 117.683594 164.320312 C 117.683594 163.714844 118.148438 163.25 118.753906 163.25 L 129.402344 163.25 C 129.679688 163.25 129.960938 163.34375 130.191406 163.578125 L 141.863281 175.203125 L 148.929688 175.203125 L 156.605469 167.527344 C 157.023438 167.109375 157.71875 167.109375 158.136719 167.527344 C 158.558594 167.945312 158.558594 168.644531 158.136719 169.0625 L 150.140625 177.0625 C 149.953125 177.246094 149.675781 177.386719 149.394531 177.386719 Z M 149.394531 177.386719 " fill-opacity="1" fill-rule="nonzero"/></g><path fill="#3e5abd" d="M 157.394531 161.484375 L 147.441406 161.484375 C 147.164062 161.484375 146.886719 161.390625 146.652344 161.15625 L 140.144531 154.601562 L 133.074219 154.601562 C 132.46875 154.601562 132.003906 154.136719 132.003906 153.53125 C 132.003906 152.925781 132.46875 152.460938 133.074219 152.460938 L 140.609375 152.460938 C 140.886719 152.460938 141.164062 152.554688 141.398438 152.789062 L 147.910156 159.296875 L 157.394531 159.296875 C 158 159.296875 158.464844 159.761719 158.464844 160.367188 C 158.464844 160.972656 158 161.484375 157.394531 161.484375 Z M 157.394531 161.484375 " fill-opacity="1" fill-rule="nonzero"/><g fill="#000000" fill-opacity="1"><g transform="translate(96.082087, 104.34739)"><g><path d="M 28.988281 -27.667969 C 28.988281 -28.328125 28.824219 -28.65625 28.082031 -28.738281 L 19.0625 -29.316406 L 16.882812 -29.316406 C 6.875 -29.316406 1.441406 -24.457031 1.441406 -14.453125 C 1.441406 -4.445312 6.875 0.410156 16.882812 0.410156 L 21.207031 0.410156 L 28 0.0820312 C 28.699219 0.0429688 28.90625 -0.164062 28.945312 -0.863281 L 28.945312 -13.503906 C 28.988281 -14.164062 28.738281 -14.453125 28 -14.453125 L 22.441406 -14.453125 C 21.742188 -14.453125 21.535156 -14.207031 21.492188 -13.503906 L 20.957031 -0.164062 L 17.457031 -0.164062 C 12.929688 -0.164062 9.265625 -8.027344 9.265625 -14.453125 C 9.265625 -20.875 12.929688 -28.738281 17.457031 -28.738281 L 26.558594 -20.957031 C 26.847656 -20.667969 27.132812 -20.546875 27.464844 -20.546875 C 27.628906 -20.546875 27.75 -20.585938 27.917969 -20.628906 L 28.410156 -20.835938 C 28.824219 -21 28.988281 -21.246094 28.988281 -21.824219 Z M 28.988281 -27.667969 "/></g></g></g><g fill="#000000" fill-opacity="1"><g transform="translate(128.563622, 104.34739)"><g><path d="M 14.699219 -21.65625 C 14.453125 -22.234375 13.917969 -22.730469 13.21875 -22.730469 L 11.117188 -22.730469 C 10.539062 -22.730469 9.964844 -22.234375 9.71875 -21.65625 L 0.492188 -1.070312 C 0.289062 -0.535156 0.492188 0 1.152344 0 L 7.082031 0 C 7.945312 0 8.277344 -0.453125 7.988281 -1.070312 L 4.941406 -7.863281 L 13.136719 -7.863281 L 16.183594 -1.070312 C 16.46875 -0.453125 16.921875 0 17.664062 0 L 23.265625 0 C 23.921875 0 24.128906 -0.535156 23.921875 -1.070312 Z M 12.886719 -8.441406 L 4.488281 -8.441406 L 8.648438 -17.953125 Z M 12.886719 -8.441406 "/></g></g></g><g fill="#000000" fill-opacity="1"><g transform="translate(152.976225, 104.34739)"><g><path d="M 21.988281 -15.359375 L 22.109375 -15.523438 C 22.277344 -20.875 19.515625 -22.730469 10.417969 -22.730469 L 4.199219 -22.730469 C 3.542969 -22.730469 3.292969 -22.316406 3.292969 -21.65625 L 3.292969 -1.070312 C 3.292969 -0.410156 3.542969 0 4.199219 0 L 11.488281 0 C 20.875 0 23.632812 -1.441406 23.632812 -6.628906 C 23.632812 -11.035156 19.804688 -12.105469 14.039062 -12.105469 Z M 10.171875 -11.570312 C 14.617188 -11.570312 16.71875 -10.171875 16.71875 -6.050781 C 16.71875 -2.800781 14.617188 -0.578125 10.664062 -0.578125 L 9.921875 -0.578125 L 9.921875 -11.570312 Z M 10.417969 -22.152344 C 14.164062 -22.152344 16.386719 -21.082031 16.386719 -16.964844 C 16.386719 -15.027344 14.617188 -12.148438 10.171875 -12.148438 L 9.921875 -12.148438 L 9.921875 -22.152344 Z M 10.417969 -22.152344 "/></g></g></g><g fill="#000000" fill-opacity="1"><g transform="translate(178.459195, 104.34739)"><g><path d="M 25.035156 0 C 25.734375 0 25.941406 -0.578125 25.570312 -1.070312 L 20.835938 -7.289062 C 20.546875 -7.660156 20.050781 -7.660156 19.597656 -7.660156 C 15.5625 -7.660156 13.835938 -8.933594 12.765625 -10.210938 L 13.753906 -10.210938 C 20.175781 -10.210938 23.511719 -11.488281 23.511719 -16.675781 C 23.511719 -21.453125 20.175781 -22.730469 13.753906 -22.730469 L 4.199219 -22.730469 C 3.542969 -22.730469 3.292969 -22.316406 3.292969 -21.65625 L 3.292969 -1.070312 C 3.292969 -0.410156 3.542969 0 4.199219 0 L 9.429688 0 C 10.085938 0 10.335938 -0.410156 10.335938 -1.070312 L 10.335938 -10.210938 L 11.980469 -10.210938 L 18.28125 -1.070312 C 18.777344 -0.410156 19.433594 0 20.09375 0 Z M 12.394531 -22.152344 C 14.863281 -22.152344 16.429688 -21.824219 16.429688 -16.675781 C 16.429688 -11.527344 14.863281 -10.789062 12.394531 -10.789062 L 10.335938 -10.789062 L 10.335938 -22.152344 Z M 12.394531 -22.152344 "/></g></g></g><g fill="#000000" fill-opacity="1"><g transform="translate(204.847862, 104.34739)"><g><path d="M 4.488281 -22.730469 C 3.828125 -22.730469 3.582031 -22.316406 3.582031 -21.65625 L 3.582031 -1.070312 C 3.582031 -0.410156 3.828125 0 4.488281 0 L 9.71875 0 C 10.375 0 10.625 -0.410156 10.625 -1.070312 L 10.625 -21.65625 C 10.625 -22.316406 10.375 -22.730469 9.71875 -22.730469 Z M 3.292969 -28.738281 C 3.292969 -26.640625 4.980469 -24.953125 7.082031 -24.953125 C 9.183594 -24.953125 10.871094 -26.640625 10.871094 -28.738281 C 10.871094 -30.839844 9.183594 -32.527344 7.082031 -32.527344 C 4.980469 -32.527344 3.292969 -30.839844 3.292969 -28.738281 Z M 3.292969 -28.738281 "/></g></g></g><g fill="#000000" fill-opacity="1"><g transform="translate(219.009649, 104.34739)"><g><path d="M 4.199219 -22.730469 C 3.542969 -22.730469 3.292969 -22.316406 3.292969 -21.65625 L 3.292969 -1.070312 C 3.292969 -0.410156 3.542969 0 4.199219 0 L 20.464844 0 C 21.039062 0 21.371094 -0.410156 21.617188 -1.070312 L 24.167969 -7.453125 C 24.253906 -7.660156 24.335938 -7.863281 24.128906 -8.027344 L 23.632812 -8.398438 C 23.550781 -8.480469 23.46875 -8.480469 23.386719 -8.480469 C 23.265625 -8.480469 23.140625 -8.398438 22.976562 -8.316406 L 11.941406 -0.578125 L 10.335938 -0.578125 L 10.335938 -11.324219 L 19.144531 -11.117188 L 19.144531 -12.105469 L 10.335938 -11.898438 L 10.335938 -22.152344 L 11.941406 -22.152344 L 19.023438 -16.183594 C 19.597656 -15.730469 20.300781 -15.195312 20.875 -15.195312 L 21.121094 -15.195312 C 21.78125 -15.195312 22.027344 -15.605469 22.027344 -16.265625 L 22.027344 -21.65625 C 22.027344 -22.316406 21.78125 -22.730469 21.121094 -22.730469 Z M 4.199219 -22.730469 "/></g></g></g><g fill="#000000" fill-opacity="1"><g transform="translate(243.916272, 104.34739)"><g><path d="M 22.027344 -6.464844 C 22.027344 -7.125 21.78125 -7.535156 21.121094 -7.535156 L 20.875 -7.535156 C 20.300781 -7.535156 19.597656 -7 19.023438 -6.546875 L 11.941406 -0.578125 L 10.335938 -0.578125 L 10.335938 -21.65625 C 10.335938 -22.316406 10.085938 -22.730469 9.429688 -22.730469 L 4.199219 -22.730469 C 3.542969 -22.730469 3.292969 -22.316406 3.292969 -21.65625 L 3.292969 -1.070312 C 3.292969 -0.410156 3.542969 0 4.199219 0 L 21.121094 0 C 21.78125 0 22.027344 -0.410156 22.027344 -1.070312 Z M 22.027344 -6.464844 "/></g></g></g><g fill="#000000" fill-opacity="1"><g transform="translate(266.554736, 104.34739)"><g/></g></g><g fill="#000000" fill-opacity="1"><g transform="translate(104.024031, 281.154826)"><g><path d="M 25.5 -19.402344 L 25.625 -19.570312 C 25.789062 -24.925781 22 -28.839844 11.164062 -28.839844 L 4.203125 -28.839844 C 3.542969 -28.839844 3.296875 -28.425781 3.296875 -27.765625 L 3.296875 -1.070312 C 3.296875 -0.410156 3.542969 0 4.203125 0 L 13.265625 0 C 23.441406 0 27.148438 -2.511719 27.148438 -7.703125 C 27.148438 -12.113281 22.082031 -14.335938 16.3125 -14.335938 Z M 11.164062 -28.261719 C 17.136719 -28.261719 19.074219 -25.832031 19.074219 -21.710938 C 19.074219 -19.773438 17.839844 -14.378906 12.441406 -14.378906 L 10.753906 -14.378906 L 10.753906 -28.261719 Z M 12.441406 -13.800781 C 17.015625 -13.800781 19.402344 -11.246094 19.402344 -7.128906 C 19.402344 -3.871094 17.015625 -0.578125 12.441406 -0.578125 L 10.753906 -0.578125 L 10.753906 -13.800781 Z M 12.441406 -13.800781 "/></g></g></g><g fill="#000000" fill-opacity="1"><g transform="translate(132.610855, 281.154826)"><g><path d="M 14.996094 -23.152344 C 7.332031 -23.152344 1.648438 -21.464844 1.648438 -11.453125 C 1.648438 -1.441406 7.332031 0.246094 14.996094 0.246094 C 21.503906 0.246094 28.34375 -1.441406 28.34375 -11.453125 C 28.34375 -21.464844 21.503906 -23.152344 14.996094 -23.152344 Z M 14.996094 -22.660156 C 18.125 -22.660156 20.515625 -17.878906 20.515625 -11.453125 C 20.515625 -5.027344 18.125 -0.246094 14.996094 -0.246094 C 11.863281 -0.246094 9.476562 -5.027344 9.476562 -11.453125 C 9.476562 -17.878906 11.863281 -22.660156 14.996094 -22.660156 Z M 14.996094 -22.660156 "/></g></g></g><g fill="#000000" fill-opacity="1"><g transform="translate(162.598196, 281.154826)"><g><path d="M 29.292969 0 C 29.949219 0 30.199219 -0.410156 30.199219 -1.070312 L 30.199219 -21.667969 C 30.199219 -22.328125 29.949219 -22.742188 29.292969 -22.742188 L 25.953125 -22.742188 C 25.210938 -22.742188 24.882812 -22.617188 24.59375 -22.082031 L 17.714844 -11.082031 L 10.957031 -21.875 C 10.585938 -22.492188 10.050781 -22.742188 9.433594 -22.742188 L 2.429688 -22.742188 C 2.058594 -22.742188 2.019531 -22.535156 2.019531 -22.289062 L 3.789062 -19.445312 L 3.789062 -1.070312 C 3.789062 -0.410156 4.039062 0 4.695312 0 L 7.085938 0 C 7.746094 0 7.992188 -0.289062 7.992188 -0.949219 C 7.992188 -1.730469 7.664062 -2.019531 7.210938 -2.761719 L 4.367188 -7.292969 L 4.367188 -18.496094 L 13.429688 -4.078125 L 14.089844 -4.078125 L 22.246094 -17.425781 L 22.246094 -1.070312 C 22.246094 -0.410156 22.492188 0 23.152344 0 Z M 29.292969 0 "/></g></g></g><g fill="#000000" fill-opacity="1"><g transform="translate(196.0868, 281.154826)"><g><path d="M 13.429688 0.410156 C 19.898438 0.410156 21.792969 -2.761719 21.792969 -9.597656 L 21.792969 -21.667969 C 21.792969 -22.328125 21.546875 -22.742188 20.886719 -22.742188 L 16.273438 -22.742188 C 16.066406 -22.742188 15.984375 -22.617188 15.984375 -22.453125 L 15.984375 -17.671875 C 15.984375 -17.386719 15.984375 -17.179688 16.273438 -16.851562 L 21.300781 -10.257812 L 21.300781 -9.597656 C 21.300781 -2.59375 18.746094 -0.164062 14.128906 -0.164062 L 13.429688 -0.164062 C 11.207031 -0.164062 10.011719 -1.9375 10.011719 -9.597656 L 10.011719 -21.667969 C 10.011719 -22.328125 9.765625 -22.742188 9.105469 -22.742188 L 3.171875 -22.742188 C 2.511719 -22.742188 2.265625 -22.328125 2.265625 -21.667969 L 2.265625 -9.597656 C 2.265625 -2.761719 5.273438 0.410156 13.429688 0.410156 Z M 13.429688 0.410156 "/></g></g></g><g fill="#000000" fill-opacity="1"><g transform="translate(220.142576, 281.154826)"><g><path d="M 25.046875 0 C 25.75 0 25.953125 -0.578125 25.582031 -1.070312 L 20.847656 -7.292969 C 20.558594 -7.664062 20.0625 -7.664062 19.609375 -7.664062 C 15.574219 -7.664062 13.84375 -8.941406 12.769531 -10.21875 L 13.761719 -10.21875 C 20.1875 -10.21875 23.523438 -11.492188 23.523438 -16.683594 C 23.523438 -21.464844 20.1875 -22.742188 13.761719 -22.742188 L 4.203125 -22.742188 C 3.542969 -22.742188 3.296875 -22.328125 3.296875 -21.667969 L 3.296875 -1.070312 C 3.296875 -0.410156 3.542969 0 4.203125 0 L 9.433594 0 C 10.09375 0 10.339844 -0.410156 10.339844 -1.070312 L 10.339844 -10.21875 L 11.988281 -10.21875 L 18.292969 -1.070312 C 18.785156 -0.410156 19.445312 0 20.105469 0 Z M 12.402344 -22.164062 C 14.871094 -22.164062 16.4375 -21.835938 16.4375 -16.683594 C 16.4375 -11.535156 14.871094 -10.792969 12.402344 -10.792969 L 10.339844 -10.792969 L 10.339844 -22.164062 Z M 12.402344 -22.164062 "/></g></g></g><g fill="#000000" fill-opacity="1"><g transform="translate(246.546257, 281.154826)"><g><path d="M 14.707031 -21.667969 C 14.460938 -22.246094 13.925781 -22.742188 13.222656 -22.742188 L 11.125 -22.742188 C 10.546875 -22.742188 9.96875 -22.246094 9.722656 -21.667969 L 0.496094 -1.070312 C 0.289062 -0.535156 0.496094 0 1.152344 0 L 7.085938 0 C 7.949219 0 8.28125 -0.453125 7.992188 -1.070312 L 4.945312 -7.867188 L 13.140625 -7.867188 L 16.191406 -1.070312 C 16.480469 -0.453125 16.933594 0 17.671875 0 L 23.277344 0 C 23.9375 0 24.140625 -0.535156 23.9375 -1.070312 Z M 12.894531 -8.445312 L 4.492188 -8.445312 L 8.652344 -17.960938 Z M 12.894531 -8.445312 "/></g></g></g></svg>