<svg xmlns="http://www.w3.org/2000/svg" xmlns:xlink="http://www.w3.org/1999/xlink" width="250" zoomAndPan="magnify" viewBox="0 0 187.5 187.499992" height="250" preserveAspectRatio="xMidYMid meet" version="1.0"><defs><g/><clipPath id="4d5242feb5"><path d="M 0 0 L 187 0 L 187 187 L 0 187 Z M 0 0 " clip-rule="nonzero"/></clipPath><linearGradient x1="0" gradientTransform="matrix(0.75, 0, 0, 0.75, 0.000004, 0)" y1="0" x2="249.335116" gradientUnits="userSpaceOnUse" y2="0" id="09da0e25a5"><stop stop-opacity="1" stop-color="rgb(100%, 39.99939%, 76.899719%)" offset="0"/><stop stop-opacity="1" stop-color="rgb(100%, 40.182495%, 76.734924%)" offset="0.0078125"/><stop stop-opacity="1" stop-color="rgb(100%, 40.548706%, 76.408386%)" offset="0.015625"/><stop stop-opacity="1" stop-color="rgb(100%, 40.916443%, 76.080322%)" offset="0.0234375"/><stop stop-opacity="1" stop-color="rgb(100%, 41.282654%, 75.753784%)" offset="0.03125"/><stop stop-opacity="1" stop-color="rgb(100%, 41.650391%, 75.42572%)" offset="0.0390625"/><stop stop-opacity="1" stop-color="rgb(100%, 42.016602%, 75.099182%)" offset="0.046875"/><stop stop-opacity="1" stop-color="rgb(100%, 42.384338%, 74.771118%)" offset="0.0546875"/><stop stop-opacity="1" stop-color="rgb(100%, 42.750549%, 74.44458%)" offset="0.0625"/><stop stop-opacity="1" stop-color="rgb(100%, 43.118286%, 74.116516%)" offset="0.0703125"/><stop stop-opacity="1" stop-color="rgb(100%, 43.484497%, 73.789978%)" offset="0.078125"/><stop stop-opacity="1" stop-color="rgb(100%, 43.852234%, 73.46344%)" offset="0.0859375"/><stop stop-opacity="1" stop-color="rgb(100%, 44.219971%, 73.135376%)" offset="0.09375"/><stop stop-opacity="1" stop-color="rgb(100%, 44.586182%, 72.808838%)" offset="0.101562"/><stop stop-opacity="1" stop-color="rgb(100%, 44.953918%, 72.480774%)" offset="0.109375"/><stop stop-opacity="1" stop-color="rgb(100%, 45.320129%, 72.154236%)" offset="0.117188"/><stop stop-opacity="1" stop-color="rgb(100%, 45.687866%, 71.826172%)" offset="0.125"/><stop stop-opacity="1" stop-color="rgb(100%, 46.054077%, 71.499634%)" offset="0.132812"/><stop stop-opacity="1" stop-color="rgb(100%, 46.421814%, 71.17157%)" offset="0.140625"/><stop stop-opacity="1" stop-color="rgb(100%, 46.788025%, 70.845032%)" offset="0.148437"/><stop stop-opacity="1" stop-color="rgb(100%, 47.155762%, 70.516968%)" offset="0.15625"/><stop stop-opacity="1" stop-color="rgb(100%, 47.521973%, 70.19043%)" offset="0.164063"/><stop stop-opacity="1" stop-color="rgb(100%, 47.889709%, 69.862366%)" offset="0.171875"/><stop stop-opacity="1" stop-color="rgb(100%, 48.25592%, 69.535828%)" offset="0.179688"/><stop stop-opacity="1" stop-color="rgb(100%, 48.623657%, 69.207764%)" offset="0.1875"/><stop stop-opacity="1" stop-color="rgb(100%, 48.989868%, 68.881226%)" offset="0.195312"/><stop stop-opacity="1" stop-color="rgb(100%, 49.357605%, 68.554688%)" offset="0.203125"/><stop stop-opacity="1" stop-color="rgb(100%, 49.723816%, 68.226624%)" offset="0.210937"/><stop stop-opacity="1" stop-color="rgb(100%, 50.091553%, 67.900085%)" offset="0.21875"/><stop stop-opacity="1" stop-color="rgb(100%, 50.457764%, 67.572021%)" offset="0.226563"/><stop stop-opacity="1" stop-color="rgb(100%, 50.8255%, 67.245483%)" offset="0.234375"/><stop stop-opacity="1" stop-color="rgb(100%, 51.191711%, 66.917419%)" offset="0.242188"/><stop stop-opacity="1" stop-color="rgb(100%, 51.559448%, 66.590881%)" offset="0.25"/><stop stop-opacity="1" stop-color="rgb(100%, 51.925659%, 66.262817%)" offset="0.257812"/><stop stop-opacity="1" stop-color="rgb(100%, 52.293396%, 65.936279%)" offset="0.265625"/><stop stop-opacity="1" stop-color="rgb(100%, 52.659607%, 65.608215%)" offset="0.273438"/><stop stop-opacity="1" stop-color="rgb(100%, 53.027344%, 65.281677%)" offset="0.28125"/><stop stop-opacity="1" stop-color="rgb(100%, 53.393555%, 64.953613%)" offset="0.289062"/><stop stop-opacity="1" stop-color="rgb(100%, 53.761292%, 64.627075%)" offset="0.296875"/><stop stop-opacity="1" stop-color="rgb(100%, 54.127502%, 64.299011%)" offset="0.304688"/><stop stop-opacity="1" stop-color="rgb(100%, 54.495239%, 63.972473%)" offset="0.3125"/><stop stop-opacity="1" stop-color="rgb(100%, 54.86145%, 63.644409%)" offset="0.320312"/><stop stop-opacity="1" stop-color="rgb(100%, 55.229187%, 63.317871%)" offset="0.328125"/><stop stop-opacity="1" stop-color="rgb(100%, 55.595398%, 62.991333%)" offset="0.335938"/><stop stop-opacity="1" stop-color="rgb(100%, 55.963135%, 62.663269%)" offset="0.34375"/><stop stop-opacity="1" stop-color="rgb(100%, 56.329346%, 62.336731%)" offset="0.351562"/><stop stop-opacity="1" stop-color="rgb(100%, 56.697083%, 62.008667%)" offset="0.359375"/><stop stop-opacity="1" stop-color="rgb(100%, 57.063293%, 61.682129%)" offset="0.367188"/><stop stop-opacity="1" stop-color="rgb(100%, 57.43103%, 61.354065%)" offset="0.375"/><stop stop-opacity="1" stop-color="rgb(100%, 57.797241%, 61.027527%)" offset="0.382812"/><stop stop-opacity="1" stop-color="rgb(100%, 58.164978%, 60.699463%)" offset="0.390625"/><stop stop-opacity="1" stop-color="rgb(100%, 58.531189%, 60.372925%)" offset="0.398438"/><stop stop-opacity="1" stop-color="rgb(100%, 58.898926%, 60.044861%)" offset="0.40625"/><stop stop-opacity="1" stop-color="rgb(100%, 59.265137%, 59.718323%)" offset="0.414062"/><stop stop-opacity="1" stop-color="rgb(100%, 59.632874%, 59.390259%)" offset="0.421875"/><stop stop-opacity="1" stop-color="rgb(100%, 59.999084%, 59.063721%)" offset="0.429688"/><stop stop-opacity="1" stop-color="rgb(100%, 60.366821%, 58.735657%)" offset="0.4375"/><stop stop-opacity="1" stop-color="rgb(100%, 60.733032%, 58.409119%)" offset="0.445312"/><stop stop-opacity="1" stop-color="rgb(100%, 61.100769%, 58.082581%)" offset="0.453125"/><stop stop-opacity="1" stop-color="rgb(100%, 61.468506%, 57.754517%)" offset="0.460938"/><stop stop-opacity="1" stop-color="rgb(100%, 61.834717%, 57.427979%)" offset="0.46875"/><stop stop-opacity="1" stop-color="rgb(100%, 62.202454%, 57.099915%)" offset="0.476562"/><stop stop-opacity="1" stop-color="rgb(100%, 62.568665%, 56.773376%)" offset="0.484375"/><stop stop-opacity="1" stop-color="rgb(100%, 62.936401%, 56.445312%)" offset="0.492188"/><stop stop-opacity="1" stop-color="rgb(100%, 63.302612%, 56.118774%)" offset="0.5"/><stop stop-opacity="1" stop-color="rgb(100%, 63.670349%, 55.79071%)" offset="0.507812"/><stop stop-opacity="1" stop-color="rgb(100%, 64.03656%, 55.464172%)" offset="0.515625"/><stop stop-opacity="1" stop-color="rgb(100%, 64.404297%, 55.136108%)" offset="0.523437"/><stop stop-opacity="1" stop-color="rgb(100%, 64.770508%, 54.80957%)" offset="0.53125"/><stop stop-opacity="1" stop-color="rgb(100%, 65.138245%, 54.481506%)" offset="0.539062"/><stop stop-opacity="1" stop-color="rgb(100%, 65.504456%, 54.154968%)" offset="0.546875"/><stop stop-opacity="1" stop-color="rgb(100%, 65.872192%, 53.826904%)" offset="0.554687"/><stop stop-opacity="1" stop-color="rgb(100%, 66.238403%, 53.500366%)" offset="0.5625"/><stop stop-opacity="1" stop-color="rgb(100%, 66.60614%, 53.173828%)" offset="0.570312"/><stop stop-opacity="1" stop-color="rgb(100%, 66.972351%, 52.845764%)" offset="0.578125"/><stop stop-opacity="1" stop-color="rgb(100%, 67.340088%, 52.519226%)" offset="0.585937"/><stop stop-opacity="1" stop-color="rgb(100%, 67.706299%, 52.191162%)" offset="0.59375"/><stop stop-opacity="1" stop-color="rgb(100%, 68.074036%, 51.864624%)" offset="0.601562"/><stop stop-opacity="1" stop-color="rgb(100%, 68.440247%, 51.53656%)" offset="0.609375"/><stop stop-opacity="1" stop-color="rgb(100%, 68.807983%, 51.210022%)" offset="0.617188"/><stop stop-opacity="1" stop-color="rgb(100%, 69.174194%, 50.881958%)" offset="0.625"/><stop stop-opacity="1" stop-color="rgb(100%, 69.541931%, 50.55542%)" offset="0.632812"/><stop stop-opacity="1" stop-color="rgb(100%, 69.908142%, 50.227356%)" offset="0.640625"/><stop stop-opacity="1" stop-color="rgb(100%, 70.275879%, 49.900818%)" offset="0.648438"/><stop stop-opacity="1" stop-color="rgb(100%, 70.64209%, 49.572754%)" offset="0.65625"/><stop stop-opacity="1" stop-color="rgb(100%, 71.009827%, 49.246216%)" offset="0.664063"/><stop stop-opacity="1" stop-color="rgb(100%, 71.376038%, 48.918152%)" offset="0.671875"/><stop stop-opacity="1" stop-color="rgb(100%, 71.743774%, 48.591614%)" offset="0.679688"/><stop stop-opacity="1" stop-color="rgb(100%, 72.109985%, 48.26355%)" offset="0.6875"/><stop stop-opacity="1" stop-color="rgb(100%, 72.477722%, 47.937012%)" offset="0.695313"/><stop stop-opacity="1" stop-color="rgb(100%, 72.843933%, 47.610474%)" offset="0.703125"/><stop stop-opacity="1" stop-color="rgb(100%, 73.21167%, 47.28241%)" offset="0.710938"/><stop stop-opacity="1" stop-color="rgb(100%, 73.577881%, 46.955872%)" offset="0.71875"/><stop stop-opacity="1" stop-color="rgb(100%, 73.945618%, 46.627808%)" offset="0.726563"/><stop stop-opacity="1" stop-color="rgb(100%, 74.311829%, 46.30127%)" offset="0.734375"/><stop stop-opacity="1" stop-color="rgb(100%, 74.679565%, 45.973206%)" offset="0.742188"/><stop stop-opacity="1" stop-color="rgb(100%, 75.045776%, 45.646667%)" offset="0.75"/><stop stop-opacity="1" stop-color="rgb(100%, 75.413513%, 45.318604%)" offset="0.757812"/><stop stop-opacity="1" stop-color="rgb(100%, 75.779724%, 44.992065%)" offset="0.765625"/><stop stop-opacity="1" stop-color="rgb(100%, 76.147461%, 44.664001%)" offset="0.773437"/><stop stop-opacity="1" stop-color="rgb(100%, 76.513672%, 44.337463%)" offset="0.78125"/><stop stop-opacity="1" stop-color="rgb(100%, 76.881409%, 44.009399%)" offset="0.789062"/><stop stop-opacity="1" stop-color="rgb(100%, 77.24762%, 43.682861%)" offset="0.796875"/><stop stop-opacity="1" stop-color="rgb(100%, 77.615356%, 43.354797%)" offset="0.804687"/><stop stop-opacity="1" stop-color="rgb(100%, 77.981567%, 43.028259%)" offset="0.8125"/><stop stop-opacity="1" stop-color="rgb(100%, 78.349304%, 42.701721%)" offset="0.820312"/><stop stop-opacity="1" stop-color="rgb(100%, 78.717041%, 42.373657%)" offset="0.828125"/><stop stop-opacity="1" stop-color="rgb(100%, 79.083252%, 42.047119%)" offset="0.835937"/><stop stop-opacity="1" stop-color="rgb(100%, 79.450989%, 41.719055%)" offset="0.84375"/><stop stop-opacity="1" stop-color="rgb(100%, 79.8172%, 41.392517%)" offset="0.851562"/><stop stop-opacity="1" stop-color="rgb(100%, 80.184937%, 41.064453%)" offset="0.859375"/><stop stop-opacity="1" stop-color="rgb(100%, 80.551147%, 40.737915%)" offset="0.867188"/><stop stop-opacity="1" stop-color="rgb(100%, 80.918884%, 40.409851%)" offset="0.875"/><stop stop-opacity="1" stop-color="rgb(100%, 81.285095%, 40.083313%)" offset="0.882812"/><stop stop-opacity="1" stop-color="rgb(100%, 81.652832%, 39.755249%)" offset="0.890625"/><stop stop-opacity="1" stop-color="rgb(100%, 82.019043%, 39.428711%)" offset="0.898438"/><stop stop-opacity="1" stop-color="rgb(100%, 82.38678%, 39.100647%)" offset="0.90625"/><stop stop-opacity="1" stop-color="rgb(100%, 82.752991%, 38.774109%)" offset="0.914063"/><stop stop-opacity="1" stop-color="rgb(100%, 83.120728%, 38.446045%)" offset="0.921875"/><stop stop-opacity="1" stop-color="rgb(100%, 83.486938%, 38.119507%)" offset="0.929688"/><stop stop-opacity="1" stop-color="rgb(100%, 83.854675%, 37.792969%)" offset="0.9375"/><stop stop-opacity="1" stop-color="rgb(100%, 84.220886%, 37.464905%)" offset="0.945313"/><stop stop-opacity="1" stop-color="rgb(100%, 84.588623%, 37.138367%)" offset="0.953125"/><stop stop-opacity="1" stop-color="rgb(100%, 84.954834%, 36.810303%)" offset="0.960938"/><stop stop-opacity="1" stop-color="rgb(100%, 85.322571%, 36.483765%)" offset="0.96875"/><stop stop-opacity="1" stop-color="rgb(100%, 85.688782%, 36.155701%)" offset="0.976563"/><stop stop-opacity="1" stop-color="rgb(100%, 86.056519%, 35.829163%)" offset="0.984375"/><stop stop-opacity="1" stop-color="rgb(100%, 86.422729%, 35.501099%)" offset="0.992188"/><stop stop-opacity="1" stop-color="rgb(100%, 86.790466%, 35.174561%)" offset="1"/></linearGradient></defs><g clip-path="url(#4d5242feb5)"><path fill="#ffffff" d="M 0 0 L 187.5 0 L 187.5 195 L 0 195 Z M 0 0 " fill-opacity="1" fill-rule="nonzero"/><path fill="#ffffff" d="M 0 0 L 187.5 0 L 187.5 187.5 L 0 187.5 Z M 0 0 " fill-opacity="1" fill-rule="nonzero"/></g><path fill="url(#09da0e25a5)" d="M 0 0 L 0 187 L 187 187 L 187 0 Z M 0 0 " fill-rule="nonzero"/><g fill="#000000" fill-opacity="1"><g transform="translate(35.859374, 138.374982)"><g><path d="M 37.40625 -41.953125 C 37.925781 -42.023438 38.703125 -42.0625 39.734375 -42.0625 C 43.359375 -42.0625 46.078125 -41.082031 47.890625 -39.125 C 49.703125 -37.164062 50.609375 -34.375 50.609375 -30.75 C 50.609375 -30.15625 50.535156 -29.117188 50.390625 -27.640625 C 49.722656 -22.234375 48.164062 -17.253906 45.71875 -12.703125 C 43.28125 -8.160156 39.507812 -4.738281 34.40625 -2.4375 C 31.082031 -0.882812 27.125 -0.109375 22.53125 -0.109375 C 20.976562 -0.109375 19.796875 -0.144531 18.984375 -0.21875 C 12.546875 -0.738281 7.734375 -3.070312 4.546875 -7.21875 C 1.367188 -11.363281 -0.441406 -16.800781 -0.890625 -23.53125 C -0.960938 -24.863281 -1 -26.785156 -1 -29.296875 C -1 -35.585938 -0.476562 -41.210938 0.5625 -46.171875 C 2.476562 -55.128906 5.914062 -62.234375 10.875 -67.484375 C 16.875 -73.703125 23.71875 -76.8125 31.40625 -76.8125 C 39.550781 -76.8125 45.328125 -73.773438 48.734375 -67.703125 C 50.140625 -64.972656 50.84375 -61.570312 50.84375 -57.5 C 50.84375 -54.394531 50.546875 -51.359375 49.953125 -48.390625 C 49.722656 -47.210938 49.019531 -46.625 47.84375 -46.625 L 33.515625 -46.171875 C 32.773438 -46.097656 32.179688 -46.359375 31.734375 -46.953125 C 31.296875 -47.546875 31.148438 -48.175781 31.296875 -48.84375 C 31.742188 -51.28125 31.96875 -53.460938 31.96875 -55.390625 C 31.96875 -57.679688 31.335938 -59.125 30.078125 -59.71875 C 29.484375 -59.9375 29.003906 -60.046875 28.640625 -60.046875 C 26.859375 -60.046875 24.785156 -58.34375 22.421875 -54.9375 C 18.722656 -48.875 16.875 -39.957031 16.875 -28.1875 C 16.875 -26.039062 17.078125 -23.835938 17.484375 -21.578125 C 17.890625 -19.328125 18.6875 -17.90625 19.875 -17.3125 C 20.90625 -16.71875 21.941406 -16.421875 22.984375 -16.421875 C 24.535156 -16.421875 25.992188 -17.015625 27.359375 -18.203125 C 28.734375 -19.390625 29.75 -20.867188 30.40625 -22.640625 L 25.859375 -21.859375 L 25.3125 -21.859375 C 24.71875 -21.859375 24.234375 -22.046875 23.859375 -22.421875 C 23.347656 -22.941406 23.128906 -23.609375 23.203125 -24.421875 L 25.3125 -38.625 C 25.53125 -39.882812 26.195312 -40.550781 27.3125 -40.625 C 32.707031 -41.363281 36.070312 -41.804688 37.40625 -41.953125 Z M 34.859375 -68.59375 L 35.1875 -68.59375 L 35.40625 -68.8125 C 35.625 -69.039062 35.734375 -69.15625 35.734375 -69.15625 L 34.75 -69.265625 L 34.75 -68.8125 Z M 37.296875 -68.15625 C 37.078125 -68.082031 36.78125 -68.046875 36.40625 -68.046875 C 36.332031 -68.046875 36.109375 -67.859375 35.734375 -67.484375 L 36.078125 -67.15625 L 37.296875 -67.15625 L 37.515625 -67.265625 L 37.515625 -67.484375 C 37.222656 -67.484375 37.078125 -67.597656 37.078125 -67.828125 C 37.078125 -67.898438 37.148438 -68.007812 37.296875 -68.15625 Z M 46.625 -67.15625 C 46.695312 -67.082031 46.84375 -67.046875 47.0625 -67.046875 L 47.515625 -67.484375 L 47.28125 -67.484375 C 47.207031 -67.554688 47.023438 -67.59375 46.734375 -67.59375 L 46.625 -67.484375 Z M 41.1875 -66.71875 C 40.957031 -66.632812 40.84375 -66.554688 40.84375 -66.484375 C 40.84375 -66.117188 41.03125 -65.9375 41.40625 -65.9375 L 41.84375 -65.9375 L 41.953125 -66.15625 C 42.023438 -66.15625 42.0625 -66.191406 42.0625 -66.265625 C 42.144531 -66.335938 42.1875 -66.445312 42.1875 -66.59375 C 42.1875 -66.75 42 -66.898438 41.625 -67.046875 Z M 43.84375 -66.71875 C 43.695312 -66.5625 43.625 -66.445312 43.625 -66.375 C 43.625 -66.300781 43.804688 -66.15625 44.171875 -65.9375 L 44.28125 -66.15625 L 44.28125 -66.59375 C 44.28125 -66.675781 44.132812 -66.71875 43.84375 -66.71875 Z M 36.296875 -64.828125 C 36.515625 -64.828125 36.703125 -64.789062 36.859375 -64.71875 L 36.859375 -65.046875 L 37.078125 -65.265625 C 36.773438 -65.410156 36.476562 -65.484375 36.1875 -65.484375 C 35.882812 -65.484375 35.734375 -65.375 35.734375 -65.15625 Z M 42.953125 -64.9375 L 42.953125 -65.15625 L 42.84375 -65.265625 L 42.734375 -64.828125 Z M 28.640625 -64.71875 L 28.75 -64.9375 L 28.53125 -64.9375 L 28.421875 -64.71875 Z M 29.53125 -64.15625 L 29.640625 -63.71875 L 30.53125 -63.71875 C 30.53125 -63.863281 30.453125 -64.082031 30.296875 -64.375 C 30.222656 -64.300781 30.078125 -64.265625 29.859375 -64.265625 Z M 39.515625 -62.9375 C 39.515625 -62.789062 39.585938 -62.734375 39.734375 -62.765625 C 39.878906 -62.804688 39.953125 -62.898438 39.953125 -63.046875 L 39.953125 -63.375 L 39.515625 -63.375 Z M 39.40625 -62.046875 C 39.40625 -61.828125 39.535156 -61.601562 39.796875 -61.375 C 40.054688 -61.15625 40.332031 -61.046875 40.625 -61.046875 C 40.84375 -61.046875 40.988281 -61.082031 41.0625 -61.15625 L 41.40625 -61.15625 C 41.40625 -61.226562 41.367188 -61.300781 41.296875 -61.375 C 41.222656 -61.457031 41.109375 -61.5 40.953125 -61.5 C 40.734375 -61.5 40.625 -61.644531 40.625 -61.9375 C 40.476562 -62.007812 40.40625 -62.117188 40.40625 -62.265625 C 40.40625 -62.421875 40.332031 -62.5 40.1875 -62.5 L 39.515625 -62.375 Z M 38.078125 -62.046875 C 38.078125 -62.265625 37.960938 -62.375 37.734375 -62.375 C 37.585938 -62.226562 37.441406 -62.15625 37.296875 -62.15625 C 37.148438 -62.15625 37.078125 -62.082031 37.078125 -61.9375 C 37.078125 -61.789062 37.148438 -61.71875 37.296875 -61.71875 L 37.96875 -61.71875 C 38.039062 -61.71875 38.078125 -61.828125 38.078125 -62.046875 Z M 36.625 -60.828125 C 36.851562 -60.972656 36.78125 -61.082031 36.40625 -61.15625 L 36.40625 -60.828125 Z M 40.40625 -59.28125 C 40.40625 -59.28125 40.476562 -59.203125 40.625 -59.046875 C 40.695312 -59.046875 40.734375 -59.082031 40.734375 -59.15625 C 40.804688 -59.238281 40.820312 -59.332031 40.78125 -59.4375 C 40.75 -59.550781 40.695312 -59.609375 40.625 -59.609375 C 40.476562 -59.460938 40.40625 -59.351562 40.40625 -59.28125 Z M 39.078125 -59.15625 C 39.078125 -59.382812 38.707031 -59.5 37.96875 -59.5 L 37.078125 -59.5 C 36.628906 -59.5 36.332031 -59.425781 36.1875 -59.28125 C 36.332031 -59.195312 36.570312 -59.082031 36.90625 -58.9375 C 37.238281 -58.789062 37.515625 -58.679688 37.734375 -58.609375 L 38.625 -58.71875 C 38.925781 -58.789062 39.078125 -58.9375 39.078125 -59.15625 Z M 38.40625 -57.5 L 38.625 -57.71875 L 38.625 -58.046875 C 38.625 -58.273438 38.476562 -58.390625 38.1875 -58.390625 L 37.84375 -58.28125 L 37.734375 -58.28125 L 37.734375 -57.828125 Z M 41.515625 -57.28125 C 41.660156 -57.351562 41.734375 -57.5 41.734375 -57.71875 L 41.515625 -57.828125 L 41.1875 -57.71875 L 40.734375 -57.71875 C 40.804688 -57.644531 41.066406 -57.5 41.515625 -57.28125 Z M 37.734375 -55.9375 C 37.960938 -55.9375 38.113281 -56.015625 38.1875 -56.171875 L 38.734375 -56.5 C 38.890625 -56.5 39.003906 -56.535156 39.078125 -56.609375 L 39.078125 -56.9375 L 38.84375 -57.171875 L 38.40625 -57.390625 C 38.1875 -56.867188 37.742188 -56.609375 37.078125 -56.609375 L 37.296875 -56.171875 C 37.367188 -56.015625 37.515625 -55.9375 37.734375 -55.9375 Z M 18.203125 -56.5 C 18.054688 -56.425781 17.984375 -56.28125 17.984375 -56.0625 C 17.984375 -55.90625 18.28125 -55.679688 18.875 -55.390625 L 19.3125 -55.171875 L 19.53125 -55.71875 C 19.53125 -55.71875 19.160156 -56.085938 18.421875 -56.828125 C 18.421875 -56.753906 18.347656 -56.644531 18.203125 -56.5 Z M 40.515625 -55.71875 C 40.804688 -55.71875 40.953125 -55.789062 40.953125 -55.9375 C 40.878906 -56.09375 40.734375 -56.171875 40.515625 -56.171875 C 40.367188 -55.867188 40.367188 -55.71875 40.515625 -55.71875 Z M 9.109375 -54.71875 C 9.109375 -54.71875 9.125 -54.734375 9.15625 -54.765625 C 9.195312 -54.804688 9.21875 -54.828125 9.21875 -54.828125 C 9.21875 -54.828125 9.195312 -54.84375 9.15625 -54.875 C 9.125 -54.914062 9.109375 -54.9375 9.109375 -54.9375 L 9.109375 -55.0625 C 8.878906 -55.0625 8.765625 -54.910156 8.765625 -54.609375 C 8.910156 -54.609375 9.023438 -54.644531 9.109375 -54.71875 Z M 17.984375 -54.390625 C 17.835938 -54.316406 17.722656 -54.203125 17.640625 -54.046875 C 17.566406 -53.898438 17.53125 -53.789062 17.53125 -53.71875 L 18.203125 -53.71875 C 18.578125 -54.019531 19.097656 -54.171875 19.765625 -54.171875 Z M 39.40625 -53.5 C 39.40625 -53.71875 39.296875 -53.867188 39.078125 -53.953125 C 38.628906 -53.867188 38.40625 -53.71875 38.40625 -53.5 L 38.734375 -53.390625 L 39.078125 -53.28125 C 39.222656 -53.425781 39.332031 -53.5 39.40625 -53.5 Z M 37.96875 -53.5 C 37.96875 -53.570312 37.890625 -53.644531 37.734375 -53.71875 C 37.585938 -53.789062 37.441406 -53.828125 37.296875 -53.828125 C 37.003906 -53.828125 36.859375 -53.71875 36.859375 -53.5 Z M 32.40625 -48.171875 C 31.96875 -47.953125 31.75 -47.734375 31.75 -47.515625 L 32.40625 -47.515625 C 32.476562 -47.585938 32.515625 -47.695312 32.515625 -47.84375 C 32.441406 -47.914062 32.40625 -48.023438 32.40625 -48.171875 Z M 39.1875 -39.296875 L 38.625 -39.296875 L 38.625 -39.078125 C 38.625 -39.148438 38.695312 -39.1875 38.84375 -39.1875 Z M 44.171875 -38.96875 C 44.097656 -39.039062 43.914062 -39.078125 43.625 -39.078125 C 43.101562 -39.078125 42.769531 -38.851562 42.625 -38.40625 C 42.914062 -38.257812 43.140625 -38.1875 43.296875 -38.1875 L 44.171875 -38.40625 Z M 43.84375 -37.625 L 43.625 -37.625 L 43.625 -37.1875 L 43.84375 -37.1875 Z M 43.953125 -30.859375 L 44.0625 -31.75 L 44.171875 -33.078125 L 43.734375 -33.515625 C 43.953125 -33.890625 44.0625 -34.1875 44.0625 -34.40625 C 44.0625 -34.550781 44.023438 -34.664062 43.953125 -34.75 L 44.0625 -35.734375 L 43.734375 -35.734375 C 43.660156 -35.734375 43.550781 -35.660156 43.40625 -35.515625 L 43.171875 -35.296875 C 43.398438 -34.554688 43.476562 -34.148438 43.40625 -34.078125 C 43.332031 -34.003906 43.296875 -33.816406 43.296875 -33.515625 L 43.296875 -29.96875 C 43.210938 -29.894531 43.171875 -29.75 43.171875 -29.53125 L 43.171875 -25.53125 C 43.328125 -25.3125 43.476562 -25.203125 43.625 -25.203125 C 43.769531 -25.203125 43.953125 -25.3125 44.171875 -25.53125 L 44.171875 -26.421875 C 44.023438 -27.160156 43.953125 -28.046875 43.953125 -29.078125 L 43.953125 -30.296875 L 44.0625 -30.640625 Z M 40.84375 -28.859375 C 40.988281 -28.929688 41.0625 -29.039062 41.0625 -29.1875 L 40.40625 -29.296875 L 40.296875 -28.96875 Z M 11.328125 -22.203125 C 11.398438 -22.347656 11.4375 -22.566406 11.4375 -22.859375 C 11.363281 -23.085938 11.328125 -23.347656 11.328125 -23.640625 L 11.09375 -23.75 L 10.328125 -23.75 C 10.171875 -23.082031 10.132812 -22.710938 10.21875 -22.640625 L 10.328125 -22.203125 L 10.765625 -22.203125 C 10.984375 -22.128906 11.171875 -22.128906 11.328125 -22.203125 Z M 20.09375 -10.875 L 19.875 -10.328125 L 20.09375 -10.328125 L 20.3125 -10.21875 L 20.75 -10.21875 L 20.75 -10.875 Z M 26.859375 -4.328125 C 26.785156 -4.253906 26.640625 -4.21875 26.421875 -4.21875 C 26.191406 -4.21875 26.003906 -4.144531 25.859375 -4 L 25.859375 -3.890625 C 25.859375 -3.890625 25.875 -3.867188 25.90625 -3.828125 C 25.945312 -3.796875 25.96875 -3.78125 25.96875 -3.78125 L 27.1875 -3.78125 L 27.421875 -4 Z M 26.859375 -4.328125 "/></g></g></g><g fill="#000000" fill-opacity="1"><g transform="translate(91.692367, 138.374982)"><g><path d="M 48.84375 -41.1875 C 51.425781 -43.914062 53.203125 -46.984375 54.171875 -50.390625 L 54.28125 -50.5 L 54.28125 -50.609375 C 54.875 -53.203125 55.171875 -55.757812 55.171875 -58.28125 C 55.171875 -61.75 54.539062 -64.597656 53.28125 -66.828125 C 50.757812 -71.335938 46.6875 -74.257812 41.0625 -75.59375 C 39.507812 -75.957031 37.550781 -76.140625 35.1875 -76.140625 C 32.820312 -76.140625 30.34375 -75.957031 27.75 -75.59375 L 6.4375 -73.15625 C 5.25 -73.070312 4.582031 -72.40625 4.4375 -71.15625 L -1.109375 -2.4375 C -1.109375 -1.695312 -0.882812 -1.101562 -0.4375 -0.65625 C 0 -0.21875 0.515625 0 1.109375 0 L 26.640625 0 C 32.265625 0 36.816406 -0.738281 40.296875 -2.21875 C 44.140625 -3.695312 47.207031 -6.359375 49.5 -10.203125 C 51.800781 -14.054688 52.953125 -18.128906 52.953125 -22.421875 C 52.953125 -26.117188 52.394531 -29.148438 51.28125 -31.515625 C 50.164062 -33.890625 48.390625 -36.113281 45.953125 -38.1875 Z M 46.28125 -68.375 L 46.0625 -67.9375 L 45.84375 -67.9375 L 45.953125 -68.375 Z M 30.078125 -66.15625 L 29.53125 -66.375 C 29.226562 -66.519531 29.003906 -66.59375 28.859375 -66.59375 L 29.296875 -66.9375 L 29.859375 -67.265625 L 30.640625 -66.59375 L 30.640625 -66.375 L 30.40625 -66.15625 Z M 30.1875 -62.71875 C 30.113281 -62.644531 30.003906 -62.609375 29.859375 -62.609375 L 29.75 -62.828125 C 29.675781 -62.898438 29.640625 -63.007812 29.640625 -63.15625 L 29.75 -63.71875 L 30.40625 -64.484375 C 30.40625 -64.335938 30.367188 -64.226562 30.296875 -64.15625 L 30.1875 -63.9375 C 30.039062 -63.789062 30.039062 -63.601562 30.1875 -63.375 C 30.332031 -63.226562 30.40625 -63.046875 30.40625 -62.828125 Z M 33.078125 -62.9375 L 33.296875 -62.9375 L 33.296875 -62.5 L 33.078125 -62.5 Z M 38.625 -60.5 L 38.84375 -60.9375 L 39.078125 -60.9375 L 38.84375 -60.390625 Z M 23.75 -57.171875 C 26.707031 -57.679688 28.925781 -57.9375 30.40625 -57.9375 C 31.445312 -57.9375 32.335938 -57.679688 33.078125 -57.171875 C 33.597656 -56.867188 33.859375 -56.164062 33.859375 -55.0625 C 33.859375 -54.394531 33.742188 -53.503906 33.515625 -52.390625 C 33.078125 -50.765625 32.191406 -49.582031 30.859375 -48.84375 C 28.492188 -47.4375 24.867188 -46.25 19.984375 -45.28125 L 20.984375 -56.828125 Z M 39.953125 -52.953125 C 39.953125 -52.722656 39.878906 -52.535156 39.734375 -52.390625 L 39.515625 -52.5 C 39.515625 -52.644531 39.660156 -52.796875 39.953125 -52.953125 Z M 19.640625 -51.71875 C 19.640625 -51.351562 19.421875 -51.0625 18.984375 -50.84375 L 19.203125 -50.390625 L 19.53125 -50.0625 C 19.53125 -50.0625 19.546875 -50.039062 19.578125 -50 C 19.617188 -49.96875 19.640625 -49.953125 19.640625 -49.953125 L 19.421875 -49.5 L 18.765625 -49.5 C 18.535156 -49.5 18.421875 -49.613281 18.421875 -49.84375 L 18.203125 -50.28125 C 18.648438 -50.582031 18.796875 -50.804688 18.640625 -50.953125 L 18.3125 -50.953125 L 18.203125 -51.0625 L 18.09375 -51.0625 C 18.09375 -51.207031 18.164062 -51.28125 18.3125 -51.28125 L 18.53125 -51.28125 L 18.421875 -51.5 C 18.421875 -51.5 18.398438 -51.535156 18.359375 -51.609375 C 18.328125 -51.679688 18.273438 -51.71875 18.203125 -51.71875 L 18.203125 -52.0625 C 18.203125 -52.132812 18.238281 -52.171875 18.3125 -52.171875 L 18.3125 -52.390625 L 18.53125 -52.390625 L 18.875 -52.609375 C 19.019531 -52.460938 19.09375 -52.390625 19.09375 -52.390625 L 19.53125 -51.953125 Z M 49.953125 -48.390625 C 49.804688 -48.242188 49.691406 -48.171875 49.609375 -48.171875 C 49.460938 -48.171875 49.390625 -48.132812 49.390625 -48.0625 C 49.316406 -48.0625 49.222656 -48.097656 49.109375 -48.171875 C 49.003906 -48.242188 48.953125 -48.351562 48.953125 -48.5 C 48.953125 -48.726562 49.097656 -48.84375 49.390625 -48.84375 L 49.609375 -48.84375 L 49.953125 -48.734375 Z M 18.765625 -48.0625 C 18.835938 -47.988281 18.984375 -47.878906 19.203125 -47.734375 L 19.3125 -47.28125 L 18.09375 -47.28125 L 18.3125 -47.734375 L 18.53125 -47.84375 Z M 33.75 -47.0625 C 33.894531 -47.207031 33.96875 -47.46875 33.96875 -47.84375 L 34.96875 -47.84375 L 34.96875 -47.515625 L 35.078125 -47.28125 L 35.078125 -47.0625 Z M 32.1875 -47.0625 C 32.1875 -46.84375 32.335938 -46.734375 32.640625 -46.734375 C 32.046875 -46.359375 31.523438 -46.359375 31.078125 -46.734375 L 31.75 -46.84375 C 31.96875 -46.988281 32.128906 -47.097656 32.234375 -47.171875 C 32.347656 -47.242188 32.332031 -47.207031 32.1875 -47.0625 Z M 18.875 -46.734375 C 18.875 -46.660156 18.910156 -46.625 18.984375 -46.625 L 18.984375 -46.515625 L 18.3125 -46.171875 C 18.019531 -46.242188 17.722656 -46.503906 17.421875 -46.953125 L 18.3125 -47.0625 L 18.53125 -46.953125 L 18.765625 -46.953125 L 18.875 -46.84375 Z M 34.40625 -46.515625 C 34.40625 -46.515625 34.421875 -46.492188 34.453125 -46.453125 C 34.492188 -46.410156 34.515625 -46.390625 34.515625 -46.390625 L 34.515625 -46.171875 L 34.078125 -46.171875 C 33.859375 -46.171875 33.671875 -46.207031 33.515625 -46.28125 C 33.515625 -46.351562 33.609375 -46.445312 33.796875 -46.5625 C 33.984375 -46.675781 34.1875 -46.734375 34.40625 -46.734375 Z M 36.40625 -44.515625 C 36.1875 -44.285156 35.960938 -44.171875 35.734375 -44.171875 C 35.585938 -44.171875 35.367188 -44.097656 35.078125 -43.953125 C 35.078125 -44.097656 35.039062 -44.207031 34.96875 -44.28125 L 34.75 -44.40625 L 34.515625 -44.625 L 34.75 -44.84375 L 35.078125 -45.28125 C 35.441406 -45.507812 35.660156 -45.734375 35.734375 -45.953125 Z M 29.296875 -45.515625 L 29.296875 -45.84375 L 30.1875 -45.734375 L 30.1875 -45.28125 Z M 13.765625 -44.515625 C 13.691406 -44.585938 13.539062 -44.625 13.3125 -44.625 L 13.09375 -44.734375 L 12.4375 -44.953125 C 12.4375 -45.171875 12.726562 -45.394531 13.3125 -45.625 L 13.765625 -45.28125 Z M 29.75 -45.171875 C 30.039062 -44.953125 30.039062 -44.695312 29.75 -44.40625 L 29.53125 -44.40625 L 29.296875 -44.515625 C 29.296875 -44.515625 29.273438 -44.53125 29.234375 -44.5625 C 29.203125 -44.601562 29.1875 -44.625 29.1875 -44.625 L 29.296875 -44.84375 L 29.53125 -45.0625 Z M 11.4375 -44.171875 C 11.207031 -44.171875 11.019531 -44.207031 10.875 -44.28125 L 11.09375 -44.953125 C 11.175781 -44.953125 11.253906 -44.929688 11.328125 -44.890625 C 11.398438 -44.859375 11.472656 -44.84375 11.546875 -44.84375 L 11.984375 -44.84375 L 11.984375 -44.171875 Z M 17.09375 -44.28125 C 17.09375 -44.363281 17.144531 -44.421875 17.25 -44.453125 C 17.363281 -44.492188 17.457031 -44.550781 17.53125 -44.625 L 17.53125 -44.171875 C 17.53125 -43.953125 17.492188 -43.769531 17.421875 -43.625 L 16.875 -43.953125 C 16.875 -44.023438 16.945312 -44.132812 17.09375 -44.28125 Z M 44.734375 -44.0625 C 44.804688 -44.132812 44.953125 -44.207031 45.171875 -44.28125 C 45.398438 -44.363281 45.625 -44.40625 45.84375 -44.40625 L 46.28125 -44.40625 L 46.625 -44.28125 L 46.171875 -43.84375 Z M 44.28125 -43.84375 L 44.0625 -43.734375 L 43.953125 -44.0625 L 44.171875 -44.0625 Z M 34.96875 -42.84375 L 34.96875 -43.515625 L 35.515625 -43.515625 L 35.515625 -42.84375 Z M 33.75 -42.84375 C 34.257812 -42.625 34.515625 -42.328125 34.515625 -41.953125 L 33.515625 -41.953125 C 33.671875 -42.253906 33.75 -42.550781 33.75 -42.84375 Z M 45.28125 -42.625 L 44.84375 -42.40625 L 44.84375 -42.625 L 45.171875 -42.734375 Z M 29.1875 -38.734375 C 29.039062 -38.585938 28.859375 -38.625 28.640625 -38.84375 L 28.53125 -39.1875 C 28.53125 -39.476562 28.675781 -39.625 28.96875 -39.625 C 29.1875 -39.625 29.375 -39.585938 29.53125 -39.515625 L 29.53125 -38.734375 Z M 36.734375 -37.96875 L 36.734375 -38.40625 C 36.816406 -38.40625 36.859375 -38.441406 36.859375 -38.515625 L 37.515625 -38.515625 L 37.296875 -37.96875 Z M 29.96875 -30.078125 C 29.601562 -30.078125 29.34375 -30.265625 29.1875 -30.640625 C 29.488281 -30.640625 29.710938 -30.601562 29.859375 -30.53125 C 29.929688 -30.445312 29.96875 -30.296875 29.96875 -30.078125 Z M 23.53125 -29.296875 L 23.640625 -29.421875 C 25.265625 -29.785156 26.632812 -29.96875 27.75 -29.96875 C 28.5625 -29.96875 29.191406 -29.859375 29.640625 -29.640625 C 30.972656 -28.828125 31.640625 -27.640625 31.640625 -26.078125 C 31.640625 -25.117188 31.378906 -24.15625 30.859375 -23.1875 C 30.335938 -22.226562 29.707031 -21.457031 28.96875 -20.875 C 27.632812 -19.832031 26.207031 -19.035156 24.6875 -18.484375 C 23.175781 -17.929688 21.238281 -17.539062 18.875 -17.3125 L 19.3125 -28.421875 Z M 34.75 -29.96875 L 34.96875 -29.96875 L 34.96875 -29.421875 L 34.75 -29.421875 Z M 10.328125 -28.1875 C 10.328125 -27.96875 10.210938 -27.785156 9.984375 -27.640625 L 9.984375 -28.640625 C 10.210938 -28.421875 10.328125 -28.269531 10.328125 -28.1875 Z M 10.546875 -26.75 C 10.546875 -26.75 10.523438 -26.726562 10.484375 -26.6875 C 10.453125 -26.65625 10.4375 -26.640625 10.4375 -26.640625 C 10.0625 -26.421875 9.910156 -26.160156 9.984375 -25.859375 C 10.054688 -25.785156 10.070312 -25.710938 10.03125 -25.640625 C 10 -25.566406 9.984375 -25.492188 9.984375 -25.421875 C 9.910156 -25.492188 9.765625 -25.53125 9.546875 -25.53125 L 9.546875 -25.859375 C 9.835938 -26.085938 9.984375 -26.3125 9.984375 -26.53125 C 9.765625 -26.75 9.878906 -26.929688 10.328125 -27.078125 L 10.4375 -27.078125 L 10.4375 -26.859375 C 10.507812 -26.859375 10.546875 -26.820312 10.546875 -26.75 Z M 10.328125 -24.3125 C 10.328125 -24.164062 10.269531 -23.925781 10.15625 -23.59375 C 10.039062 -23.257812 9.910156 -23.015625 9.765625 -22.859375 C 9.765625 -22.859375 9.875 -22.75 10.09375 -22.53125 C 10.09375 -22.53125 10.113281 -22.507812 10.15625 -22.46875 C 10.195312 -22.4375 10.21875 -22.421875 10.21875 -22.421875 L 9.984375 -22.3125 C 9.910156 -22.382812 9.765625 -22.421875 9.546875 -22.421875 L 9.546875 -23.75 C 9.398438 -24.195312 9.398438 -24.601562 9.546875 -24.96875 L 9.984375 -24.96875 C 9.984375 -24.894531 10.0625 -24.785156 10.21875 -24.640625 Z M 14.546875 -24.421875 C 14.617188 -24.347656 14.632812 -24.273438 14.59375 -24.203125 C 14.5625 -24.128906 14.546875 -24.050781 14.546875 -23.96875 L 14.4375 -24.203125 C 14.4375 -24.347656 14.394531 -24.457031 14.3125 -24.53125 C 14.3125 -24.675781 14.390625 -24.785156 14.546875 -24.859375 Z M 9.984375 -20.421875 C 9.984375 -20.492188 9.945312 -20.546875 9.875 -20.578125 C 9.800781 -20.617188 9.765625 -20.640625 9.765625 -20.640625 C 9.691406 -20.640625 9.632812 -20.675781 9.59375 -20.75 C 9.5625 -20.832031 9.546875 -20.875 9.546875 -20.875 L 9.984375 -20.875 Z M 10.09375 -15.765625 C 10.019531 -15.617188 9.984375 -15.320312 9.984375 -14.875 C 9.691406 -14.875 9.507812 -14.800781 9.4375 -14.65625 C 9.582031 -14.507812 9.691406 -14.4375 9.765625 -14.4375 C 9.910156 -14.4375 9.984375 -14.359375 9.984375 -14.203125 C 9.910156 -14.203125 9.875 -14.164062 9.875 -14.09375 L 9.765625 -13.984375 L 9.328125 -14.4375 C 9.097656 -14.582031 8.984375 -14.691406 8.984375 -14.765625 L 9.109375 -15.203125 L 9.21875 -15.546875 L 9.546875 -15.546875 L 9.875 -15.65625 C 9.726562 -15.800781 9.546875 -15.875 9.328125 -15.875 C 9.179688 -16.613281 9.109375 -17.390625 9.109375 -18.203125 C 9.109375 -18.347656 9.253906 -18.421875 9.546875 -18.421875 C 9.765625 -18.566406 9.875 -18.71875 9.875 -18.875 L 9.875 -19.203125 C 9.875 -19.421875 9.910156 -19.566406 9.984375 -19.640625 L 10.09375 -17.765625 C 9.875 -17.765625 9.691406 -17.648438 9.546875 -17.421875 C 9.617188 -17.347656 9.726562 -17.253906 9.875 -17.140625 C 10.019531 -17.035156 10.113281 -16.925781 10.15625 -16.8125 C 10.195312 -16.707031 10.21875 -16.578125 10.21875 -16.421875 Z M 28.96875 -16.421875 C 28.820312 -16.273438 28.601562 -16.203125 28.3125 -16.203125 L 27.96875 -16.53125 L 28.421875 -16.765625 L 28.859375 -16.984375 Z M 9.109375 -13.4375 L 9.109375 -13.765625 L 9.21875 -13.875 L 9.546875 -13.875 L 9.984375 -13.765625 L 9.984375 -13.09375 L 9.65625 -13.09375 Z M 14.09375 -6.109375 C 14.09375 -6.109375 14.070312 -6.125 14.03125 -6.15625 C 14 -6.195312 13.984375 -6.21875 13.984375 -6.21875 L 13.984375 -6.4375 C 13.984375 -6.65625 14.054688 -6.894531 14.203125 -7.15625 C 14.359375 -7.414062 14.507812 -7.617188 14.65625 -7.765625 L 14.65625 -8.21875 L 14.546875 -8.65625 L 14.65625 -8.765625 C 14.65625 -8.835938 14.691406 -8.875 14.765625 -8.875 C 14.546875 -9.46875 14.582031 -9.988281 14.875 -10.4375 C 15.164062 -11.03125 15.3125 -11.734375 15.3125 -12.546875 L 15.546875 -13.203125 C 15.691406 -13.503906 15.835938 -13.726562 15.984375 -13.875 L 15.984375 -6.109375 Z M 9.4375 -11.328125 L 9.21875 -11.328125 L 9.21875 -11.765625 L 9.4375 -11.765625 Z M 9.4375 -10.328125 L 9.21875 -10.328125 L 9.21875 -10.65625 L 9.4375 -10.65625 Z M 9.328125 -8.328125 C 9.023438 -8.253906 8.765625 -8.253906 8.546875 -8.328125 L 8.546875 -8.765625 L 9.328125 -8.765625 Z M 13.546875 -6.875 C 13.546875 -6.726562 13.46875 -6.582031 13.3125 -6.4375 C 13.164062 -6.289062 13.09375 -6.144531 13.09375 -6 C 13.164062 -5.925781 13.203125 -5.773438 13.203125 -5.546875 C 13.203125 -5.253906 13.054688 -4.957031 12.765625 -4.65625 L 12.546875 -4.546875 L 12.4375 -4.546875 C 12.363281 -4.617188 12.328125 -4.84375 12.328125 -5.21875 C 12.328125 -5.664062 12.398438 -5.890625 12.546875 -5.890625 C 12.691406 -5.890625 12.910156 -6.257812 13.203125 -7 C 13.273438 -7 13.3125 -6.957031 13.3125 -6.875 Z M 13.546875 -6.875 "/></g></g></g></svg>